<svg xmlns="http://www.w3.org/2000/svg" xmlns:xlink="http://www.w3.org/1999/xlink" contentStyleType="text/css" data-diagram-type="DESCRIPTION" height="806px" preserveAspectRatio="none" style="width:1829px;height:806px;background:#F8FAFC;" version="1.1" viewBox="0 0 1829 806" width="1829px" zoomAndPan="magnify"><?plantuml 1.2026.6?><defs/><g><rect fill="#F8FAFC" height="806" style="stroke:none;stroke-width:1;" width="1829" x="0" y="0"/><g class="title" data-source-line="24"><text fill="#000000" font-family="Arial" font-size="22" font-weight="700" lengthAdjust="spacing" textLength="815.751" x="505.7143" y="35.4209">&#1040;&#1088;&#1093;&#1080;&#1090;&#1077;&#1082;&#1090;&#1091;&#1088;&#1072; HH Process &#1085;&#1072; Helios &#1080; &#1090;&#1086;&#1095;&#1082;&#1080; &#1080;&#1085;&#1090;&#1077;&#1075;&#1088;&#1072;&#1094;&#1080;&#1080; Camunda</text></g><!--cluster Camunda--><g class="cluster" data-qualified-name="Camunda" data-source-line="28" id="ent0002"><polygon fill="#FFF7ED" points="21,501.8994,31,491.8994,925,491.8994,925,655.7594,915,665.7594,21,665.7594,21,501.8994" style="stroke:#0F172A;stroke-width:1;stroke-linejoin:miter;stroke-miterlimit:10;"/><line style="stroke:#0F172A;stroke-width:1;" x1="915" x2="925" y1="501.8994" y2="491.8994"/><line style="stroke:#0F172A;stroke-width:1;" x1="21" x2="915" y1="501.8994" y2="501.8994"/><line style="stroke:#0F172A;stroke-width:1;" x1="915" x2="915" y1="501.8994" y2="665.7594"/><text fill="#000000" font-family="Arial" font-size="18" font-weight="700" lengthAdjust="spacing" textLength="213.9082" x="362.0459" y="521.6074">Camunda standalone</text><text fill="#000000" font-family="Arial" font-size="18" font-weight="700" lengthAdjust="spacing" textLength="344.2412" x="296.8794" y="542.5605">&#1086;&#1090;&#1076;&#1077;&#1083;&#1100;&#1085;&#1099;&#1081; BPM-&#1089;&#1077;&#1088;&#1074;&#1080;&#1089; &#1085;&#1072; Helios</text></g><!--cluster App--><g class="cluster" data-qualified-name="App" data-source-line="34" id="ent0006"><polygon fill="#ECFDF5" points="796,237.5094,806,227.5094,1718,227.5094,1718,391.3694,1708,401.3694,796,401.3694,796,237.5094" style="stroke:#0F172A;stroke-width:1;stroke-linejoin:miter;stroke-miterlimit:10;"/><line style="stroke:#0F172A;stroke-width:1;" x1="1708" x2="1718" y1="237.5094" y2="227.5094"/><line style="stroke:#0F172A;stroke-width:1;" x1="796" x2="1708" y1="237.5094" y2="237.5094"/><line style="stroke:#0F172A;stroke-width:1;" x1="1708" x2="1708" y1="237.5094" y2="401.3694"/><text fill="#000000" font-family="Arial" font-size="18" font-weight="700" lengthAdjust="spacing" textLength="233.7539" x="1136.123" y="257.2174">WildFly + &#1087;&#1088;&#1080;&#1083;&#1086;&#1078;&#1077;&#1085;&#1080;&#1077;</text><text fill="#000000" font-family="Arial" font-size="18" font-weight="700" lengthAdjust="spacing" textLength="273.6387" x="1116.1807" y="278.1705">Spring Boot WAR &#1085;&#1072; Helios</text></g><!--cluster Db--><g class="cluster" data-qualified-name="Db" data-source-line="40" id="ent0010"><path d="M997,494.3694 C997,484.3694 1272,484.3694 1272,484.3694 C1272,484.3694 1547,484.3694 1547,494.3694 L1547,653.2794 C1547,663.2794 1272,663.2794 1272,663.2794 C1272,663.2794 997,663.2794 997,653.2794 L997,494.3694" fill="#FDF2F8" style="stroke:#DB2777;stroke-width:1;"/><path d="M997,494.3694 C997,504.3694 1272,504.3694 1272,504.3694 C1272,504.3694 1547,504.3694 1547,494.3694" fill="none" style="stroke:#DB2777;stroke-width:1;"/><text fill="#000000" font-family="Arial" font-size="18" font-weight="700" lengthAdjust="spacing" textLength="118.582" x="1212.709" y="523.0774">PostgreSQL</text><text fill="#000000" font-family="Arial" font-size="18" font-weight="700" lengthAdjust="spacing" textLength="216.5186" x="1163.7407" y="544.0305">&#1076;&#1072;&#1085;&#1085;&#1099;&#1077; &#1087;&#1088;&#1080;&#1083;&#1086;&#1078;&#1077;&#1085;&#1080;&#1103;</text></g><!--entity Engine--><g class="entity" data-qualified-name="Camunda.Engine" data-source-line="29" id="ent0003"><rect fill="#FFFFFF" height="71.9063" rx="2.5" ry="2.5" style="stroke:#94A3B8;stroke-width:1;" width="231.9795" x="37.01" y="567.3694"/><rect fill="#FFFFFF" height="10" style="stroke:#94A3B8;stroke-width:1;" width="15" x="248.9895" y="572.3694"/><rect fill="#FFFFFF" height="2" style="stroke:#94A3B8;stroke-width:1;" width="4" x="246.9895" y="574.3694"/><rect fill="#FFFFFF" height="2" style="stroke:#94A3B8;stroke-width:1;" width="4" x="246.9895" y="578.3694"/><text fill="#000000" font-family="Arial" font-size="18" lengthAdjust="spacing" textLength="153.8174" x="52.01" y="604.0774">Camunda Engine</text><text fill="#000000" font-family="Arial" font-size="18" lengthAdjust="spacing" textLength="191.9795" x="52.01" y="625.0305">BPMN / DMN / history</text></g><!--entity Tasklist--><g class="entity" data-qualified-name="Camunda.Tasklist" data-source-line="30" id="ent0004"><rect fill="#FFFFFF" height="71.9063" rx="2.5" ry="2.5" style="stroke:#94A3B8;stroke-width:1;" width="315.502" x="304.25" y="567.3694"/><rect fill="#FFFFFF" height="10" style="stroke:#94A3B8;stroke-width:1;" width="15" x="599.752" y="572.3694"/><rect fill="#FFFFFF" height="2" style="stroke:#94A3B8;stroke-width:1;" width="4" x="597.752" y="574.3694"/><rect fill="#FFFFFF" height="2" style="stroke:#94A3B8;stroke-width:1;" width="4" x="597.752" y="578.3694"/><text fill="#000000" font-family="Arial" font-size="18" lengthAdjust="spacing" textLength="153.1582" x="319.25" y="604.0774">Tasklist / Cockpit</text><text fill="#000000" font-family="Arial" font-size="18" lengthAdjust="spacing" textLength="275.502" x="319.25" y="625.0305">&#1092;&#1086;&#1088;&#1084;&#1099; / &#1079;&#1072;&#1076;&#1072;&#1095;&#1080; / &#1076;&#1080;&#1072;&#1075;&#1088;&#1072;&#1084;&#1084;&#1099;</text></g><!--entity EngineRest--><g class="entity" data-qualified-name="Camunda.EngineRest" data-source-line="31" id="ent0005"><rect fill="#FFFFFF" height="92.8594" rx="2.5" ry="2.5" style="stroke:#94A3B8;stroke-width:1;" width="254.4795" x="654.76" y="556.8994"/><rect fill="#FFFFFF" height="10" style="stroke:#94A3B8;stroke-width:1;" width="15" x="889.2395" y="561.8994"/><rect fill="#FFFFFF" height="2" style="stroke:#94A3B8;stroke-width:1;" width="4" x="887.2395" y="563.8994"/><rect fill="#FFFFFF" height="2" style="stroke:#94A3B8;stroke-width:1;" width="4" x="887.2395" y="567.8994"/><text fill="#000000" font-family="Arial" font-size="18" lengthAdjust="spacing" textLength="147.9111" x="669.76" y="593.6074">Engine REST API</text><text fill="#000000" font-family="Arial" font-size="18" lengthAdjust="spacing" textLength="214.4795" x="669.76" y="614.5605">start / tasks / messages</text><text fill="#000000" font-family="Arial" font-size="18" lengthAdjust="spacing" textLength="186.0996" x="669.76" y="635.5136">external tasks / auth</text></g><!--entity Api--><g class="entity" data-qualified-name="App.Api" data-source-line="35" id="ent0007"><rect fill="#FFFFFF" height="71.9063" rx="2.5" ry="2.5" style="stroke:#94A3B8;stroke-width:1;" width="225.0186" x="812.49" y="302.9894"/><rect fill="#FFFFFF" height="10" style="stroke:#94A3B8;stroke-width:1;" width="15" x="1017.5086" y="307.9894"/><rect fill="#FFFFFF" height="2" style="stroke:#94A3B8;stroke-width:1;" width="4" x="1015.5086" y="309.9894"/><rect fill="#FFFFFF" height="2" style="stroke:#94A3B8;stroke-width:1;" width="4" x="1015.5086" y="313.9894"/><text fill="#000000" font-family="Arial" font-size="18" lengthAdjust="spacing" textLength="80.499" x="827.49" y="339.6974">REST API</text><text fill="#000000" font-family="Arial" font-size="18" lengthAdjust="spacing" textLength="185.0186" x="827.49" y="360.6505">security / controllers</text></g><!--entity Adapter--><g class="entity" data-qualified-name="App.Adapter" data-source-line="36" id="ent0008"><rect fill="#FFFFFF" height="92.8594" rx="2.5" ry="2.5" style="stroke:#94A3B8;stroke-width:1;" width="262.0908" x="1072.95" y="292.5094"/><rect fill="#FFFFFF" height="10" style="stroke:#94A3B8;stroke-width:1;" width="15" x="1315.0408" y="297.5094"/><rect fill="#FFFFFF" height="2" style="stroke:#94A3B8;stroke-width:1;" width="4" x="1313.0408" y="299.5094"/><rect fill="#FFFFFF" height="2" style="stroke:#94A3B8;stroke-width:1;" width="4" x="1313.0408" y="303.5094"/><text fill="#000000" font-family="Arial" font-size="18" lengthAdjust="spacing" textLength="162.5713" x="1087.95" y="329.2174">Camunda adapter</text><text fill="#000000" font-family="Arial" font-size="18" lengthAdjust="spacing" textLength="193.377" x="1087.95" y="350.1705">External Task Worker</text><text fill="#000000" font-family="Arial" font-size="18" lengthAdjust="spacing" textLength="222.0908" x="1087.95" y="371.1236">process sync / auth sync</text></g><!--entity Services--><g class="entity" data-qualified-name="App.Services" data-source-line="37" id="ent0009"><rect fill="#FFFFFF" height="71.9063" rx="2.5" ry="2.5" style="stroke:#94A3B8;stroke-width:1;" width="332.2627" x="1369.87" y="302.9894"/><rect fill="#FFFFFF" height="10" style="stroke:#94A3B8;stroke-width:1;" width="15" x="1682.1327" y="307.9894"/><rect fill="#FFFFFF" height="2" style="stroke:#94A3B8;stroke-width:1;" width="4" x="1680.1327" y="309.9894"/><rect fill="#FFFFFF" height="2" style="stroke:#94A3B8;stroke-width:1;" width="4" x="1680.1327" y="313.9894"/><text fill="#000000" font-family="Arial" font-size="18" lengthAdjust="spacing" textLength="158.9502" x="1384.87" y="339.6974">Business services</text><text fill="#000000" font-family="Arial" font-size="18" lengthAdjust="spacing" textLength="292.2627" x="1384.87" y="360.6505">vacancy / application / interview</text></g><!--entity AppData--><g class="entity" data-qualified-name="Db.AppData" data-source-line="41" id="ent0011"><rect fill="#FFFFFF" height="71.9063" rx="2.5" ry="2.5" style="stroke:#94A3B8;stroke-width:1;" width="255.543" x="1021.23" y="567.3694"/><rect fill="#FFFFFF" height="10" style="stroke:#94A3B8;stroke-width:1;" width="15" x="1256.773" y="572.3694"/><rect fill="#FFFFFF" height="2" style="stroke:#94A3B8;stroke-width:1;" width="4" x="1254.773" y="574.3694"/><rect fill="#FFFFFF" height="2" style="stroke:#94A3B8;stroke-width:1;" width="4" x="1254.773" y="578.3694"/><text fill="#000000" font-family="Arial" font-size="18" lengthAdjust="spacing" textLength="110.0127" x="1036.23" y="604.0774">users / roles</text><text fill="#000000" font-family="Arial" font-size="18" lengthAdjust="spacing" textLength="215.543" x="1036.23" y="625.0305">vacancies / applications</text></g><!--entity ScheduleData--><g class="entity" data-qualified-name="Db.ScheduleData" data-source-line="42" id="ent0012"><rect fill="#FFFFFF" height="71.9063" rx="2.5" ry="2.5" style="stroke:#94A3B8;stroke-width:1;" width="192.1035" x="1311.95" y="567.3694"/><rect fill="#FFFFFF" height="10" style="stroke:#94A3B8;stroke-width:1;" width="15" x="1484.0535" y="572.3694"/><rect fill="#FFFFFF" height="2" style="stroke:#94A3B8;stroke-width:1;" width="4" x="1482.0535" y="574.3694"/><rect fill="#FFFFFF" height="2" style="stroke:#94A3B8;stroke-width:1;" width="4" x="1482.0535" y="578.3694"/><text fill="#000000" font-family="Arial" font-size="18" lengthAdjust="spacing" textLength="152.1035" x="1326.95" y="604.0774">interviews / slots</text><text fill="#000000" font-family="Arial" font-size="18" lengthAdjust="spacing" textLength="110.6016" x="1326.95" y="625.0305">notifications</text></g><!--entity User--><g class="entity" data-qualified-name="User" data-source-line="26" id="ent0001"><ellipse cx="462.004" cy="65.6094" fill="#FFFFFF" rx="8" ry="8" style="stroke:#000000;stroke-width:1;"/><path d="M462.004,73.6094 L462.004,100.6094 M449.004,81.6094 L475.004,81.6094 M462.004,100.6094 L449.004,115.6094 M462.004,100.6094 L475.004,115.6094" fill="none" style="stroke:#000000;stroke-width:1;"/><text fill="#000000" font-family="Arial" font-size="18" lengthAdjust="spacing" textLength="132.5566" x="324.13" y="134.3174">&#1055;&#1086;&#1083;&#1100;&#1079;&#1086;&#1074;&#1072;&#1090;&#1077;&#1083;&#1100;</text><text fill="#000000" font-family="Arial" font-size="18" lengthAdjust="spacing" textLength="275.748" x="324.13" y="155.2705">&#1082;&#1072;&#1085;&#1076;&#1080;&#1076;&#1072;&#1090; / &#1088;&#1077;&#1082;&#1088;&#1091;&#1090;&#1077;&#1088; / &#1072;&#1076;&#1084;&#1080;&#1085;</text></g><g class="entity" data-qualified-name="GMN22" data-source-line="57" id="ent0023"><path d="M1001.83,718.2794 L1001.83,791.1388 A0,0 0 0 0 1001.83,791.1388 L1814.1796,791.1388 A0,0 0 0 0 1814.1796,791.1388 L1814.1796,728.2794 L1804.1796,718.2794 L1412,718.2794 L1408,639.7294 L1404,718.2794 L1001.83,718.2794 A0,0 0 0 0 1001.83,718.2794" fill="#FFFFFF" style="stroke:#000000;stroke-width:1;"/><path d="M1804.1796,718.2794 L1804.1796,728.2794 L1814.1796,728.2794 L1804.1796,718.2794" fill="#FFFFFF" style="stroke:#000000;stroke-width:1;"/><text fill="#000000" font-family="Arial" font-size="18" lengthAdjust="spacing" textLength="791.3496" x="1007.83" y="739.9874">Camunda &#1091;&#1087;&#1088;&#1072;&#1074;&#1083;&#1103;&#1077;&#1090; &#1084;&#1072;&#1088;&#1096;&#1088;&#1091;&#1090;&#1086;&#1084; &#1087;&#1088;&#1086;&#1094;&#1077;&#1089;&#1089;&#1072;, &#1079;&#1072;&#1076;&#1072;&#1095;&#1072;&#1084;&#1080;, &#1092;&#1086;&#1088;&#1084;&#1072;&#1084;&#1080;, &#1090;&#1072;&#1081;&#1084;&#1077;&#1088;&#1072;&#1084;&#1080; &#1080; DMN.</text><text fill="#000000" font-family="Arial" font-size="18" lengthAdjust="spacing" textLength="699.8994" x="1007.83" y="760.9405">WildFly-&#1087;&#1088;&#1080;&#1083;&#1086;&#1078;&#1077;&#1085;&#1080;&#1077; &#1074;&#1099;&#1087;&#1086;&#1083;&#1085;&#1103;&#1077;&#1090; &#1073;&#1080;&#1079;&#1085;&#1077;&#1089;-&#1086;&#1087;&#1077;&#1088;&#1072;&#1094;&#1080;&#1080;, server-side &#1074;&#1072;&#1083;&#1080;&#1076;&#1072;&#1094;&#1080;&#1102;,</text><text fill="#000000" font-family="Arial" font-size="18" lengthAdjust="spacing" textLength="331.5674" x="1007.83" y="781.8936">&#1090;&#1088;&#1072;&#1085;&#1079;&#1072;&#1082;&#1094;&#1080;&#1080; &#1080; &#1088;&#1072;&#1073;&#1086;&#1090;&#1091; &#1089; PostgreSQL.</text></g><!--link User to Tasklist--><g class="link" data-entity-1="ent0001" data-entity-2="ent0004" data-link-type="dependency" data-source-line="45" id="lnk13"><path d="M330.46,159.8094 C306.3,175.2594 284.25,194.8794 270,219.5094 C227.75,292.5594 237.8,331.3794 270,409.3694 C297.77,476.6494 357.5779,529.8526 404.0379,563.9226" fill="none" id="User-to-Tasklist" style="stroke:#334155;stroke-width:2;"/><polygon fill="#334155" points="408.07,566.8794,403.1777,558.3315,404.0379,563.9226,398.4469,564.7828,408.07,566.8794" style="stroke:#334155;stroke-width:2;stroke-linejoin:miter;stroke-miterlimit:10;"/><text fill="#000000" font-family="Arial" font-size="18" lengthAdjust="spacing" textLength="147.8057" x="271" y="345.6474">Camunda Forms</text></g><!--link User to Tasklist--><g class="link" data-entity-1="ent0001" data-entity-2="ent0004" data-link-type="dependency" data-source-line="47" id="lnk15"><path d="M462,159.9894 C462,260.2994 462,476.1394 462,562.1094" fill="none" id="User-to-Tasklist-1" style="stroke:#334155;stroke-width:2;"/><polygon fill="#334155" points="462,567.1094,466,558.1094,462,562.1094,458,558.1094,462,567.1094" style="stroke:#334155;stroke-width:2;stroke-linejoin:miter;stroke-miterlimit:10;"/><text fill="#000000" font-family="Arial" font-size="18" lengthAdjust="spacing" textLength="313.9717" x="463" y="345.6474">&#1084;&#1086;&#1085;&#1080;&#1090;&#1086;&#1088;&#1080;&#1085;&#1075; &#1080; &#1074;&#1099;&#1087;&#1086;&#1083;&#1085;&#1077;&#1085;&#1080;&#1077; &#1079;&#1072;&#1076;&#1072;&#1095;</text></g><!--link User to Api--><g class="link" data-entity-1="ent0001" data-entity-2="ent0007" data-link-type="dependency" data-source-line="46" id="lnk14"><path d="M600.01,143.8794 C659.14,161.8794 727.65,186.9894 785,219.5094 C824.88,242.1294 860.6026,273.2865 887.3726,299.2765" fill="none" id="User-to-Api" style="stroke:#334155;stroke-width:2;"/><polygon fill="#334155" points="890.96,302.7594,887.289,293.6203,887.3726,299.2765,881.7164,299.3601,890.96,302.7594" style="stroke:#334155;stroke-width:2;stroke-linejoin:miter;stroke-miterlimit:10;"/><text fill="#000000" font-family="Arial" font-size="18" lengthAdjust="spacing" textLength="323.6924" x="769.9" y="207.2174">&#1087;&#1086;&#1083;&#1100;&#1079;&#1086;&#1074;&#1072;&#1090;&#1077;&#1083;&#1100;&#1089;&#1082;&#1080;&#1077; REST-&#1089;&#1094;&#1077;&#1085;&#1072;&#1088;&#1080;&#1080;</text></g><!--link Api to EngineRest--><g class="link" data-entity-1="ent0007" data-entity-2="ent0005" data-link-type="dependency" data-source-line="49" id="lnk16"><path d="M863.58,375.2594 C839.7,387.6794 811.7,400.6894 785,409.3694 C764.85,415.9294 751.67,401.1794 738,417.3694 C705.11,456.3394 725.4666,511.294 748.7466,552.194" fill="none" id="Api-to-EngineRest" style="stroke:#334155;stroke-width:2;"/><polygon fill="#334155" points="751.22,556.5394,750.2443,546.739,748.7466,552.194,743.2916,550.6964,751.22,556.5394" style="stroke:#334155;stroke-width:2;stroke-linejoin:miter;stroke-miterlimit:10;"/><text fill="#000000" font-family="Arial" font-size="18" lengthAdjust="spacing" textLength="168.46" x="767.1997" y="435.0774">&#1079;&#1072;&#1087;&#1091;&#1089;&#1082; &#1087;&#1088;&#1086;&#1094;&#1077;&#1089;&#1089;&#1086;&#1074;</text><text fill="#000000" font-family="Arial" font-size="18" lengthAdjust="spacing" textLength="224.8594" x="739" y="456.0305">&#1082;&#1086;&#1088;&#1088;&#1077;&#1083;&#1103;&#1094;&#1080;&#1103; &#1089;&#1086;&#1086;&#1073;&#1097;&#1077;&#1085;&#1080;&#1081;</text></g><!--link Adapter to EngineRest--><g class="link" data-entity-1="ent0008" data-entity-2="ent0005" data-link-type="dependency" data-source-line="50" id="lnk17"><path d="M1116.18,385.8094 C1096.46,394.7094 1075.34,403.1794 1055,409.3694 C1033.05,416.0594 1023.97,406.0794 1004,417.3694 C982.3,429.6394 986.02,443.1494 968,460.3694 C931.29,495.4594 890.1532,527.2155 853.4932,553.5055" fill="none" id="Adapter-to-EngineRest" style="stroke:#334155;stroke-width:2;"/><polygon fill="#334155" points="849.43,556.4194,859.0748,554.425,853.4932,553.5055,854.4127,547.9239,849.43,556.4194" style="stroke:#334155;stroke-width:2;stroke-linejoin:miter;stroke-miterlimit:10;"/><text fill="#000000" font-family="Arial" font-size="18" lengthAdjust="spacing" textLength="155.3291" x="1005" y="435.0774">fetch &amp; complete</text><text fill="#000000" font-family="Arial" font-size="18" lengthAdjust="spacing" textLength="127.6875" x="1018.8208" y="456.0305">external tasks</text></g><!--link Adapter to EngineRest--><g class="link" data-entity-1="ent0008" data-entity-2="ent0005" data-link-type="dependency" data-source-line="51" id="lnk18"><path d="M1201.49,385.8194 C1197.46,411.9794 1187.77,442.9294 1165,460.3694 C1150.87,471.1994 1022.03,463.1894 1005,468.3694 C944.3,486.8494 887.1018,522.4596 844.2018,553.4796" fill="none" id="Adapter-to-EngineRest-1" style="stroke:#334155;stroke-width:2;"/><polygon fill="#334155" points="840.15,556.4094,849.7869,554.3773,844.2018,553.4796,845.0994,547.8945,840.15,556.4094" style="stroke:#334155;stroke-width:2;stroke-linejoin:miter;stroke-miterlimit:10;"/><text fill="#000000" font-family="Arial" font-size="18" lengthAdjust="spacing" textLength="293.9766" x="1194.12" y="435.0774">&#1089;&#1080;&#1085;&#1093;&#1088;&#1086;&#1085;&#1080;&#1079;&#1072;&#1094;&#1080;&#1103; &#1087;&#1086;&#1083;&#1100;&#1079;&#1086;&#1074;&#1072;&#1090;&#1077;&#1083;&#1077;&#1081;</text><text fill="#000000" font-family="Arial" font-size="18" lengthAdjust="spacing" textLength="200.7246" x="1240.746" y="456.0305">&#1075;&#1088;&#1091;&#1087;&#1087; &#1080; &#1072;&#1074;&#1090;&#1086;&#1088;&#1080;&#1079;&#1072;&#1094;&#1080;&#1081;</text></g><!--link Services to Db--><g class="link" data-entity-1="ent0009" data-entity-2="ent0010" data-link-type="dependency" data-source-line="52" id="lnk19"><path d="M1536.4,375.3294 C1536.6025,392.9544 1536.8625,415.6519 1537.1395,439.8578 C1537.278,451.9608 1537.4208,464.4409 1537.5628,476.8525 C1537.5805,478.404 1537.5983,479.9544 1537.616,481.5028 C1537.6248,482.2771 1537.5765,478.0511 1537.5853,478.8243" fill="none" id="Services-to-Db" style="stroke:#334155;stroke-width:2;"/><polygon fill="#334155" points="1537.6425,483.824,1541.5393,474.7788,1537.5853,478.8243,1533.5399,474.8703,1537.6425,483.824" style="stroke:#334155;stroke-width:2;stroke-linejoin:miter;stroke-miterlimit:10;"/><text fill="#000000" font-family="Arial" font-size="18" lengthAdjust="spacing" textLength="90.2109" x="1538.32" y="445.5774">JTA / JDBC</text></g><!--link Db to AppData--><!--link Db to ScheduleData--><?plantuml-src bLNBJYD75DttLrGOAPlWIO11a5b4yWDhCfgC22PY4MTHT1Tso-sgLdLv28b6Camc3qqKyWVv1VCAvcL-eVgFScvrsxYDPn4aeAlgtdDFdVkeJqnRT0MB8nvAB-c4CkQQTzakzpijhNeogAf8QVQalbulrwjJ5acR1se_b2ssnwD4J9q4Oe_t8bDNqhpcm2xha4VppnlXJu8jhKyTQk4RBbkHO3zxZ6rb3BGKcipUJXdwgXihAQHnXfL7VDqFdIWT29tlVlcil58fuWJSy5sUY8_0rEhBzVLPc5fbUMrjhG0ZLI3-3vClwajho-K2H5bhjPyVhwmyMrfTdJtSReT-HueaOSkUPq83bUpVQJzzRuVfaRsmr-bH-Yxjsm5xyO9jQkMJgRsZjOX2XUyXW-4e_SrUuzCExPtpEoEVz5UiXwpAk-3EFO_x1amMx3zsP6_IF-qb_f_2Z1omRafW301-3hTpscUVC-0GYpvOm2pjOmisv_QMGYqmdh3l4g4zpwcra8TY2J8Uy0ZP1EW8dkTP2B3xOAzOPVERKdf8S8W_J0-dR-GmnpWazTf6pQNXeJmcOJPaAwGGm7iDOZNtjnqckEQ1myaCYixRFEb4i85fLVcTE3HDcVu2bdrxctwW-rsw6mwWwP2M9CSWKnJNXes37iCKmRE0R6kZiStAcryt9PJG5Ch0FC7_BXB8Mo9fIl6Z4LhoQ7B4UwOznNfB0FpjMDcTC0hgqG7xZDbxC1dQ6oJlNwXwX--Bfcp4cZgtefHXE-MjHugMuvWzsQYY-bTdrPmYA_oU3iq1oFZePQsYIEYnVpW_1ppWCIxIb1lZ-v0oR4Vf3kt6USqc1zBFx-Y-Cz3CjmXSwIMXwmZKrPlG9wdUS9zBdsZnE8v2dvjGIQn2QSX6x3kqHcvFearcmCAcIanBYyQthr2Avww-gGWlvkYO7ZkSskwiGZrGeGn1a0SweKYAX2P2rn2y230XIYv9f0nGf3BXNi6ruRT5q8k4yySbgBDOgVJLfDROyqbdr9Nk9WyMI0yExVtypaQlNLEPkBf4vs4mq8K7Je3Xt3Yez97JvCXr1fhTdj6miQSGpuN1JbvzKntZUSI4i1wAcD38u1up14GouKV40KmEYQcRF0ZZXirDUao3Aprcxd1aJz8_yaXNNbunZoFi2UEtsQTEz4WOCTjV7_T459gQxucKYtAPJKuGcAydVg_0-8o68YpkdIm323EMAWS0tN59kgYeg-VivNOP9V2oLgbwM9U-RuT18EGFax8fR1OA0eF02BQhZ55TRrm6nC0DfbFI3OeUKUQGsFJtV6QFxEsiueF5wHb7GssuoCOZSB8-mjSLlY_omKUl2utOfru-Yqhp9b6XGCQCJfmeTnI-X9Fx33DxdXPTdmjTIaBCEL8PdjdxGqduQz734zXtVKkSh_D7ZTuzsZsXvoLzXoooXqv_wWaPCDBhFm00?></g></svg>