<?plantuml 1.2026.2?><svg xmlns="http://www.w3.org/2000/svg" xmlns:xlink="http://www.w3.org/1999/xlink" contentStyleType="text/css" data-diagram-type="ACTIVITY" height="871px" preserveAspectRatio="none" style="width:1017px;height:871px;background:#FEFEFE;" version="1.1" viewBox="0 0 1017 871" width="1017px" zoomAndPan="magnify"><defs/><g><rect fill="#FEFEFE" height="871" style="stroke:none;stroke-width:1;" width="1017" x="0" y="0"/><rect fill="#FFFFFF" height="21.876" style="stroke:#FFFFFF;stroke-width:1;" width="994.6543" x="10" y="7.2793"/><ellipse cx="88.8564" cy="44.1553" fill="#FFFFFF" rx="10" ry="10" style="stroke:#000000;stroke-width:1;"/><rect fill="#FFFFFF" height="34.584" rx="12.5" ry="12.5" style="stroke:#000000;stroke-width:1;" width="145.7129" x="16" y="74.1553"/><text fill="#000000" font-family="Verdana" font-size="12" lengthAdjust="spacing" textLength="125.7129" x="26" y="96.2197">POST &#1086;&#1090;&#1082;&#1083;&#1080;&#1082; (REST)</text><line style="stroke:#000000;stroke-width:1;" x1="10" x2="10" y1="7.2793" y2="864.083"/><rect fill="#FFFFFF" height="49.168" rx="12.5" ry="12.5" style="stroke:#000000;stroke-width:1;" width="188.3633" x="188.541" y="128.7393"/><text fill="#000000" font-family="Verdana" font-size="12" lengthAdjust="spacing" textLength="111.832" x="198.541" y="150.8037">&#1057;&#1086;&#1093;&#1088;&#1072;&#1085;&#1080;&#1090;&#1100; &#1079;&#1072;&#1103;&#1074;&#1082;&#1091;</text><text fill="#000000" font-family="Verdana" font-size="12" lengthAdjust="spacing" textLength="168.3633" x="198.541" y="165.3877">SCREENING_IN_PROGRESS</text><rect fill="#FFFFFF" height="49.168" rx="12.5" ry="12.5" style="stroke:#000000;stroke-width:1;" width="188.1055" x="188.6699" y="197.9072"/><text fill="#000000" font-family="Verdana" font-size="12" lengthAdjust="spacing" textLength="102.6445" x="198.6699" y="219.9717">&#1055;&#1086;&#1089;&#1083;&#1077; commit &#8594;</text><text fill="#000000" font-family="Verdana" font-size="12" lengthAdjust="spacing" textLength="168.1055" x="198.6699" y="234.5557">Kafka application.submitted</text><rect fill="#FFFFFF" height="34.584" rx="12.5" ry="12.5" style="stroke:#000000;stroke-width:1;" width="203.2344" x="181.1055" y="569.1631"/><text fill="#000000" font-family="Verdana" font-size="12" lengthAdjust="spacing" textLength="183.2344" x="191.1055" y="591.2275">ApplicationScreenedConsumer</text><rect fill="#FFFFFF" height="34.584" rx="12.5" ry="12.5" style="stroke:#000000;stroke-width:1;" width="222.0195" x="171.7129" y="623.7471"/><text fill="#000000" font-family="Verdana" font-size="12" lengthAdjust="spacing" textLength="202.0195" x="181.7129" y="645.8115">&#1057;&#1086;&#1093;&#1088;&#1072;&#1085;&#1080;&#1090;&#1100; ScreeningResultEntity</text><rect fill="#FFFFFF" height="34.584" rx="12.5" ry="12.5" style="stroke:#000000;stroke-width:1;" width="169.4551" x="197.9951" y="678.3311"/><text fill="#000000" font-family="Verdana" font-size="12" lengthAdjust="spacing" textLength="149.4551" x="207.9951" y="700.3955">&#1054;&#1073;&#1085;&#1086;&#1074;&#1080;&#1090;&#1100; &#1089;&#1090;&#1072;&#1090;&#1091;&#1089; &#1079;&#1072;&#1103;&#1074;&#1082;&#1080;</text><rect fill="#FFFFFF" height="34.584" rx="12.5" ry="12.5" style="stroke:#000000;stroke-width:1;" width="191.1582" x="187.1436" y="732.915"/><text fill="#000000" font-family="Verdana" font-size="12" lengthAdjust="spacing" textLength="171.1582" x="197.1436" y="754.9795">&#1059;&#1074;&#1077;&#1076;&#1086;&#1084;&#1083;&#1077;&#1085;&#1080;&#1103; &#1087;&#1086;&#1089;&#1083;&#1077; commit</text><line style="stroke:#000000;stroke-width:1;" x1="165.7129" x2="165.7129" y1="7.2793" y2="864.083"/><rect fill="#FFFFFF" height="34.584" rx="12.5" ry="12.5" style="stroke:#000000;stroke-width:1;" width="191.1641" x="403.7324" y="267.0752"/><text fill="#000000" font-family="Verdana" font-size="12" lengthAdjust="spacing" textLength="171.1641" x="413.7324" y="289.1396">&#1058;&#1086;&#1087;&#1080;&#1082; application.submitted</text><rect fill="#FFFFFF" height="34.584" rx="12.5" ry="12.5" style="stroke:#000000;stroke-width:1;" width="184.9355" x="406.8467" y="514.5791"/><text fill="#000000" font-family="Verdana" font-size="12" lengthAdjust="spacing" textLength="164.9355" x="416.8467" y="536.6436">&#1058;&#1086;&#1087;&#1080;&#1082; application.screened</text><line style="stroke:#000000;stroke-width:1;" x1="397.7324" x2="397.7324" y1="7.2793" y2="864.083"/><rect fill="#FFFFFF" height="34.584" rx="12.5" ry="12.5" style="stroke:#000000;stroke-width:1;" width="136.3906" x="627.6396" y="321.6592"/><text fill="#000000" font-family="Verdana" font-size="12" lengthAdjust="spacing" textLength="116.3906" x="637.6396" y="343.7236">&#1057;&#1086;&#1073;&#1099;&#1090;&#1080;&#1077; &#1087;&#1086;&#1083;&#1091;&#1095;&#1077;&#1085;&#1086;</text><rect fill="#FFFFFF" height="49.168" rx="12.5" ry="12.5" style="stroke:#000000;stroke-width:1;" width="142.8828" x="624.3936" y="376.2432"/><text fill="#000000" font-family="Verdana" font-size="12" lengthAdjust="spacing" textLength="122.8828" x="634.3936" y="398.3076">computeScreening()</text><text fill="#000000" font-family="Verdana" font-size="12" lengthAdjust="spacing" textLength="100.6992" x="634.3936" y="412.8916">&#1073;&#1077;&#1079; &#1079;&#1072;&#1087;&#1080;&#1089;&#1080; &#1074; &#1041;&#1044;</text><rect fill="#FFFFFF" height="49.168" rx="12.5" ry="12.5" style="stroke:#000000;stroke-width:1;" width="181.877" x="604.8965" y="445.4111"/><text fill="#000000" font-family="Verdana" font-size="12" lengthAdjust="spacing" textLength="161.877" x="614.8965" y="467.4756">Kafka application.screened</text><text fill="#000000" font-family="Verdana" font-size="12" lengthAdjust="spacing" textLength="57.9434" x="614.8965" y="482.0596">(payload)</text><line style="stroke:#000000;stroke-width:1;" x1="598.8965" x2="598.8965" y1="7.2793" y2="864.083"/><rect fill="#FFFFFF" height="34.584" rx="12.5" ry="12.5" style="stroke:#000000;stroke-width:1;" width="201.7168" x="796.7734" y="787.499"/><text fill="#000000" font-family="Verdana" font-size="12" lengthAdjust="spacing" textLength="181.7168" x="806.7734" y="809.5635">&#1054;&#1087;&#1088;&#1086;&#1089; GET / &#1086;&#1087;&#1086;&#1074;&#1077;&#1097;&#1077;&#1085;&#1080;&#1077; WS</text><ellipse cx="897.6318" cy="853.083" fill="none" rx="11" ry="11" style="stroke:#000000;stroke-width:1;"/><ellipse cx="897.6318" cy="853.083" fill="#FFFFFF" rx="6" ry="6" style="stroke:#000000;stroke-width:1;"/><line style="stroke:#000000;stroke-width:1;" x1="790.7734" x2="790.7734" y1="7.2793" y2="864.083"/><line style="stroke:#000000;stroke-width:1;" x1="1002.4902" x2="1002.4902" y1="7.2793" y2="864.083"/><line style="stroke:#000000;stroke-width:1;" x1="88.8564" x2="88.8564" y1="54.1553" y2="74.1553"/><polygon fill="#000000" points="84.8564,64.1553,88.8564,74.1553,92.8564,64.1553,88.8564,68.1553" style="stroke:#000000;stroke-width:1;"/><line style="stroke:#000000;stroke-width:1;" x1="282.7227" x2="282.7227" y1="177.9072" y2="197.9072"/><polygon fill="#000000" points="278.7227,187.9072,282.7227,197.9072,286.7227,187.9072,282.7227,191.9072" style="stroke:#000000;stroke-width:1;"/><line style="stroke:#000000;stroke-width:1;" x1="282.7227" x2="282.7227" y1="603.7471" y2="623.7471"/><polygon fill="#000000" points="278.7227,613.7471,282.7227,623.7471,286.7227,613.7471,282.7227,617.7471" style="stroke:#000000;stroke-width:1;"/><line style="stroke:#000000;stroke-width:1;" x1="282.7227" x2="282.7227" y1="658.3311" y2="678.3311"/><polygon fill="#000000" points="278.7227,668.3311,282.7227,678.3311,286.7227,668.3311,282.7227,672.3311" style="stroke:#000000;stroke-width:1;"/><line style="stroke:#000000;stroke-width:1;" x1="282.7227" x2="282.7227" y1="712.915" y2="732.915"/><polygon fill="#000000" points="278.7227,722.915,282.7227,732.915,286.7227,722.915,282.7227,726.915" style="stroke:#000000;stroke-width:1;"/><line style="stroke:#000000;stroke-width:1;" x1="695.835" x2="695.835" y1="356.2432" y2="376.2432"/><polygon fill="#000000" points="691.835,366.2432,695.835,376.2432,699.835,366.2432,695.835,370.2432" style="stroke:#000000;stroke-width:1;"/><line style="stroke:#000000;stroke-width:1;" x1="695.835" x2="695.835" y1="425.4111" y2="445.4111"/><polygon fill="#000000" points="691.835,435.4111,695.835,445.4111,699.835,435.4111,695.835,439.4111" style="stroke:#000000;stroke-width:1;"/><line style="stroke:#000000;stroke-width:1;" x1="897.6318" x2="897.6318" y1="822.083" y2="842.083"/><polygon fill="#000000" points="893.6318,832.083,897.6318,842.083,901.6318,832.083,897.6318,836.083" style="stroke:#000000;stroke-width:1;"/><line style="stroke:#000000;stroke-width:1;" x1="88.8564" x2="88.8564" y1="108.7393" y2="113.7393"/><line style="stroke:#000000;stroke-width:1;" x1="88.8564" x2="282.7227" y1="113.7393" y2="113.7393"/><line style="stroke:#000000;stroke-width:1;" x1="282.7227" x2="282.7227" y1="113.7393" y2="128.7393"/><polygon fill="#000000" points="278.7227,118.7393,282.7227,128.7393,286.7227,118.7393,282.7227,122.7393" style="stroke:#000000;stroke-width:1;"/><line style="stroke:#000000;stroke-width:1;" x1="282.7227" x2="282.7227" y1="247.0752" y2="252.0752"/><line style="stroke:#000000;stroke-width:1;" x1="282.7227" x2="499.3145" y1="252.0752" y2="252.0752"/><line style="stroke:#000000;stroke-width:1;" x1="499.3145" x2="499.3145" y1="252.0752" y2="267.0752"/><polygon fill="#000000" points="495.3145,257.0752,499.3145,267.0752,503.3145,257.0752,499.3145,261.0752" style="stroke:#000000;stroke-width:1;"/><line style="stroke:#000000;stroke-width:1;" x1="499.3145" x2="499.3145" y1="301.6592" y2="306.6592"/><line style="stroke:#000000;stroke-width:1;" x1="499.3145" x2="695.835" y1="306.6592" y2="306.6592"/><line style="stroke:#000000;stroke-width:1;" x1="695.835" x2="695.835" y1="306.6592" y2="321.6592"/><polygon fill="#000000" points="691.835,311.6592,695.835,321.6592,699.835,311.6592,695.835,315.6592" style="stroke:#000000;stroke-width:1;"/><line style="stroke:#000000;stroke-width:1;" x1="695.835" x2="695.835" y1="494.5791" y2="499.5791"/><line style="stroke:#000000;stroke-width:1;" x1="695.835" x2="499.3145" y1="499.5791" y2="499.5791"/><line style="stroke:#000000;stroke-width:1;" x1="499.3145" x2="499.3145" y1="499.5791" y2="514.5791"/><polygon fill="#000000" points="495.3145,504.5791,499.3145,514.5791,503.3145,504.5791,499.3145,508.5791" style="stroke:#000000;stroke-width:1;"/><line style="stroke:#000000;stroke-width:1;" x1="499.3145" x2="499.3145" y1="549.1631" y2="554.1631"/><line style="stroke:#000000;stroke-width:1;" x1="499.3145" x2="282.7227" y1="554.1631" y2="554.1631"/><line style="stroke:#000000;stroke-width:1;" x1="282.7227" x2="282.7227" y1="554.1631" y2="569.1631"/><polygon fill="#000000" points="278.7227,559.1631,282.7227,569.1631,286.7227,559.1631,282.7227,563.1631" style="stroke:#000000;stroke-width:1;"/><line style="stroke:#000000;stroke-width:1;" x1="282.7227" x2="282.7227" y1="767.499" y2="772.499"/><line style="stroke:#000000;stroke-width:1;" x1="282.7227" x2="897.6318" y1="772.499" y2="772.499"/><line style="stroke:#000000;stroke-width:1;" x1="897.6318" x2="897.6318" y1="772.499" y2="787.499"/><polygon fill="#000000" points="893.6318,777.499,897.6318,787.499,901.6318,777.499,897.6318,781.499" style="stroke:#000000;stroke-width:1;"/><text fill="#000000" font-family="Verdana" font-size="18" lengthAdjust="spacing" textLength="88.3916" x="43.6606" y="25.376">&#1050;&#1072;&#1085;&#1076;&#1080;&#1076;&#1072;&#1090;</text><text fill="#000000" font-family="Verdana" font-size="18" lengthAdjust="spacing" textLength="68.3789" x="247.5332" y="25.376">app-api</text><text fill="#000000" font-family="Verdana" font-size="18" lengthAdjust="spacing" textLength="51.0732" x="472.7778" y="25.376">Kafka</text><text fill="#000000" font-family="Verdana" font-size="18" lengthAdjust="spacing" textLength="103.8076" x="642.9312" y="25.376">app-worker</text><text fill="#000000" font-family="Verdana" font-size="18" lengthAdjust="spacing" textLength="181.8896" x="805.687" y="25.376">&#1050;&#1072;&#1085;&#1076;&#1080;&#1076;&#1072;&#1090;/&#1088;&#1077;&#1082;&#1088;&#1091;&#1090;&#1077;&#1088;</text><?plantuml-src ZLB1IXjH5DtFLxpY9bcqxisgX36842KJw2OWp-Gr3fbvRvXvGn6oI29jAGgYkEgYOlq1bGuEKSTVkEyN_1BFUuQsGWfb61ZcddFkkVVSDtfFn88b4G-bbur2cV2KnsoNzqV3LELoq5IHIjdAkcyVpnlJTxgY1_f59TuhCnjxcUQfzjQsju8keyhCQ4vtgCvPhUC7tNe399uaRtaIZhqrkW3aivauaTBCp16ZM-WSqmtDpK5F1isExxStsgsTZVRETcUh1P6W0U8vY5Ce5woluZZKxEdBQKzkyeyZpg0VXNskGoNVPVakgbeCR6DNjcr_KaMFpjK_iTRa9vMEHBhmITVc4EEKQ0bkHNVcm7ob0iOh68AB9DSYwAT2o50EQ_MUf6kKRzr4jXlybenk69tG6HXBl3go6FHaBU7xaUA3-l-uNh1UR_Rz7qIm03ILpF9Of8sbU__jl2EoFDA-rA7Ujz0V60Cp8f4Ne9bY2uWQuq__IejA2xx4Pu5JgEZUXkFKZzs-NgNLM78wgx1J8FK9X6TKcCdODN_4Rv1Po--oLUOsOBqKvjkBF3G_u29mTohndW40?></g></svg>