<?plantuml 1.2026.2?><svg xmlns="http://www.w3.org/2000/svg" xmlns:xlink="http://www.w3.org/1999/xlink" contentStyleType="text/css" data-diagram-type="CLASS" height="579px" preserveAspectRatio="none" style="width:912px;height:579px;background:#FEFEFE;" version="1.1" viewBox="0 0 912 579" width="912px" zoomAndPan="magnify"><defs/><g><rect fill="#FEFEFE" height="579" style="stroke:none;stroke-width:1;" width="912" x="0" y="0"/><!--class CalendarEisClient--><g class="entity" data-qualified-name="CalendarEisClient" data-source-line="4" id="ent0002"><rect fill="#FFFFFF" height="78.0293" rx="2.5" ry="2.5" style="stroke:#000000;stroke-width:1;" width="260.1133" x="70.12" y="12"/><ellipse cx="135.1801" cy="26" fill="#FFFFFF" rx="9" ry="9" style="stroke:#000000;stroke-width:1;"/><path d="M137.6532,32.1431 Q137.0721,32.4419 136.433,32.5913 Q135.7938,32.7407 135.0883,32.7407 Q132.5814,32.7407 131.2616,31.0889 Q129.9418,29.437 129.9418,26.3159 Q129.9418,23.1865 131.2616,21.5347 Q132.5814,19.8828 135.0883,19.8828 Q135.7938,19.8828 136.4413,20.0322 Q137.0888,20.1816 137.6532,20.4805 L137.6532,23.2031 Q137.0223,22.6221 136.4288,22.3523 Q135.8353,22.0825 135.2045,22.0825 Q133.8597,22.0825 133.1749,23.1492 Q132.4901,24.2158 132.4901,26.3159 Q132.4901,28.4077 133.1749,29.4744 Q133.8597,30.541 135.2045,30.541 Q135.8353,30.541 136.4288,30.2712 Q137.0223,30.0015 137.6532,29.4204 Z " fill="#000000"/><text fill="#000000" font-family="Verdana" font-size="14" lengthAdjust="spacing" textLength="122.4932" x="152.6801" y="31.5679">CalendarEisClient</text><line style="stroke:#000000;stroke-width:1;" x1="71.12" x2="329.2333" y1="40" y2="40"/><line style="stroke:#000000;stroke-width:1;" x1="71.12" x2="329.2333" y1="48" y2="48"/><g data-visibility-modifier="PUBLIC_METHOD"><ellipse cx="81.12" cy="62.0073" fill="#FFFFFF" rx="3" ry="3" style="stroke:#000000;stroke-width:1;"/></g><text fill="#000000" font-family="Verdana" font-size="14" lengthAdjust="spacing" textLength="236.1133" x="88.12" y="66.0752">createInterviewRecord(interview)</text><g data-visibility-modifier="PUBLIC_METHOD"><ellipse cx="81.12" cy="79.022" fill="#FFFFFF" rx="3" ry="3" style="stroke:#000000;stroke-width:1;"/></g><text fill="#000000" font-family="Verdana" font-size="14" lengthAdjust="spacing" textLength="184.3857" x="88.12" y="83.0898">cancelInterviewRecord(id)</text></g><!--class ConnectionFactory--><g class="entity" data-qualified-name="ConnectionFactory" data-source-line="9" id="ent0003"><rect fill="#FFFFFF" height="44" rx="2.5" ry="2.5" style="stroke:#000000;stroke-width:1;" width="158.3477" x="12" y="288.03"/><ellipse cx="25" cy="302.03" fill="#FFFFFF" rx="9" ry="9" style="stroke:#000000;stroke-width:1;"/><path d="M21.4277,298.2951 L21.4277,296.1369 L28.8071,296.1369 L28.8071,298.2951 L26.3418,298.2951 L26.3418,306.3718 L28.8071,306.3718 L28.8071,308.53 L21.4277,308.53 L21.4277,306.3718 L23.8931,306.3718 L23.8931,298.2951 Z " fill="#000000"/><text fill="#000000" font-family="Verdana" font-size="14" font-style="italic" lengthAdjust="spacing" textLength="130.3477" x="37" y="307.5979">ConnectionFactory</text><line style="stroke:#000000;stroke-width:1;" x1="13" x2="169.3477" y1="316.03" y2="316.03"/><line style="stroke:#000000;stroke-width:1;" x1="13" x2="169.3477" y1="324.03" y2="324.03"/></g><!--class CalendarConnectionFactory--><g class="entity" data-qualified-name="CalendarConnectionFactory" data-source-line="10" id="ent0004"><rect fill="#FFFFFF" height="44" rx="2.5" ry="2.5" style="stroke:#000000;stroke-width:1;" width="220.6914" x="89.83" y="167.03"/><ellipse cx="102.83" cy="181.03" fill="#FFFFFF" rx="9" ry="9" style="stroke:#000000;stroke-width:1;"/><path d="M105.3031,187.1731 Q104.7221,187.4719 104.0829,187.6213 Q103.4438,187.7707 102.7382,187.7707 Q100.2314,187.7707 98.9115,186.1189 Q97.5917,184.467 97.5917,181.3459 Q97.5917,178.2165 98.9115,176.5647 Q100.2314,174.9128 102.7382,174.9128 Q103.4438,174.9128 104.0912,175.0622 Q104.7387,175.2116 105.3031,175.5105 L105.3031,178.2331 Q104.6723,177.6521 104.0788,177.3823 Q103.4853,177.1125 102.8544,177.1125 Q101.5097,177.1125 100.8249,178.1792 Q100.1401,179.2458 100.1401,181.3459 Q100.1401,183.4377 100.8249,184.5044 Q101.5097,185.571 102.8544,185.571 Q103.4853,185.571 104.0788,185.3012 Q104.6723,185.0315 105.3031,184.4504 Z " fill="#000000"/><text fill="#000000" font-family="Verdana" font-size="14" lengthAdjust="spacing" textLength="192.6914" x="114.83" y="186.5979">CalendarConnectionFactory</text><line style="stroke:#000000;stroke-width:1;" x1="90.83" x2="309.5214" y1="195.03" y2="195.03"/><line style="stroke:#000000;stroke-width:1;" x1="90.83" x2="309.5214" y1="203.03" y2="203.03"/></g><!--class CalendarConnection--><g class="entity" data-qualified-name="CalendarConnection" data-source-line="11" id="ent0005"><rect fill="#FFFFFF" height="44" rx="2.5" ry="2.5" style="stroke:#000000;stroke-width:1;" width="168.6699" x="379.84" y="167.03"/><ellipse cx="392.84" cy="181.03" fill="#FFFFFF" rx="9" ry="9" style="stroke:#000000;stroke-width:1;"/><path d="M395.3131,187.1731 Q394.7321,187.4719 394.0929,187.6213 Q393.4538,187.7707 392.7482,187.7707 Q390.2414,187.7707 388.9215,186.1189 Q387.6017,184.467 387.6017,181.3459 Q387.6017,178.2165 388.9215,176.5647 Q390.2414,174.9128 392.7482,174.9128 Q393.4538,174.9128 394.1012,175.0622 Q394.7487,175.2116 395.3131,175.5105 L395.3131,178.2331 Q394.6823,177.6521 394.0888,177.3823 Q393.4953,177.1125 392.8644,177.1125 Q391.5197,177.1125 390.8349,178.1792 Q390.1501,179.2458 390.1501,181.3459 Q390.1501,183.4377 390.8349,184.5044 Q391.5197,185.571 392.8644,185.571 Q393.4953,185.571 394.0888,185.3012 Q394.6823,185.0315 395.3131,184.4504 Z " fill="#000000"/><text fill="#000000" font-family="Verdana" font-size="14" lengthAdjust="spacing" textLength="140.6699" x="404.84" y="186.5979">CalendarConnection</text><line style="stroke:#000000;stroke-width:1;" x1="380.84" x2="547.5099" y1="195.03" y2="195.03"/><line style="stroke:#000000;stroke-width:1;" x1="380.84" x2="547.5099" y1="203.03" y2="203.03"/></g><!--class CalendarInteraction--><g class="entity" data-qualified-name="CalendarInteraction" data-source-line="12" id="ent0006"><rect fill="#FFFFFF" height="44" rx="2.5" ry="2.5" style="stroke:#000000;stroke-width:1;" width="167.3301" x="493.51" y="288.03"/><ellipse cx="506.51" cy="302.03" fill="#FFFFFF" rx="9" ry="9" style="stroke:#000000;stroke-width:1;"/><path d="M508.9831,308.1731 Q508.4021,308.4719 507.7629,308.6213 Q507.1238,308.7707 506.4182,308.7707 Q503.9114,308.7707 502.5915,307.1189 Q501.2717,305.467 501.2717,302.3459 Q501.2717,299.2165 502.5915,297.5647 Q503.9114,295.9128 506.4182,295.9128 Q507.1238,295.9128 507.7712,296.0622 Q508.4187,296.2116 508.9831,296.5105 L508.9831,299.2331 Q508.3523,298.6521 507.7588,298.3823 Q507.1653,298.1125 506.5344,298.1125 Q505.1897,298.1125 504.5049,299.1792 Q503.8201,300.2458 503.8201,302.3459 Q503.8201,304.4377 504.5049,305.5044 Q505.1897,306.571 506.5344,306.571 Q507.1653,306.571 507.7588,306.3012 Q508.3523,306.0315 508.9831,305.4504 Z " fill="#000000"/><text fill="#000000" font-family="Verdana" font-size="14" lengthAdjust="spacing" textLength="139.3301" x="518.51" y="307.5979">CalendarInteraction</text><line style="stroke:#000000;stroke-width:1;" x1="494.51" x2="659.8401" y1="316.03" y2="316.03"/><line style="stroke:#000000;stroke-width:1;" x1="494.51" x2="659.8401" y1="324.03" y2="324.03"/></g><!--class CalendarInteractionSpec--><g class="entity" data-qualified-name="CalendarInteractionSpec" data-source-line="13" id="ent0007"><rect fill="#FFFFFF" height="44" rx="2.5" ry="2.5" style="stroke:#000000;stroke-width:1;" width="201.2568" x="476.55" y="401.53"/><ellipse cx="489.55" cy="415.53" fill="#FFFFFF" rx="9" ry="9" style="stroke:#000000;stroke-width:1;"/><path d="M492.0231,421.6731 Q491.4421,421.9719 490.8029,422.1213 Q490.1638,422.2707 489.4582,422.2707 Q486.9514,422.2707 485.6315,420.6189 Q484.3117,418.967 484.3117,415.8459 Q484.3117,412.7165 485.6315,411.0647 Q486.9514,409.4128 489.4582,409.4128 Q490.1638,409.4128 490.8112,409.5622 Q491.4587,409.7116 492.0231,410.0105 L492.0231,412.7331 Q491.3923,412.1521 490.7988,411.8823 Q490.2053,411.6125 489.5744,411.6125 Q488.2297,411.6125 487.5449,412.6792 Q486.8601,413.7458 486.8601,415.8459 Q486.8601,417.9377 487.5449,419.0044 Q488.2297,420.071 489.5744,420.071 Q490.2053,420.071 490.7988,419.8012 Q491.3923,419.5315 492.0231,418.9504 Z " fill="#000000"/><text fill="#000000" font-family="Verdana" font-size="14" lengthAdjust="spacing" textLength="173.2568" x="501.55" y="421.0979">CalendarInteractionSpec</text><line style="stroke:#000000;stroke-width:1;" x1="477.55" x2="676.8068" y1="429.53" y2="429.53"/><line style="stroke:#000000;stroke-width:1;" x1="477.55" x2="676.8068" y1="437.53" y2="437.53"/></g><!--class CalendarMappedRecord--><g class="entity" data-qualified-name="CalendarMappedRecord" data-source-line="14" id="ent0008"><rect fill="#FFFFFF" height="44" rx="2.5" ry="2.5" style="stroke:#000000;stroke-width:1;" width="193.6074" x="712.37" y="401.53"/><ellipse cx="725.37" cy="415.53" fill="#FFFFFF" rx="9" ry="9" style="stroke:#000000;stroke-width:1;"/><path d="M727.8431,421.6731 Q727.2621,421.9719 726.6229,422.1213 Q725.9838,422.2707 725.2782,422.2707 Q722.7714,422.2707 721.4515,420.6189 Q720.1317,418.967 720.1317,415.8459 Q720.1317,412.7165 721.4515,411.0647 Q722.7714,409.4128 725.2782,409.4128 Q725.9838,409.4128 726.6312,409.5622 Q727.2787,409.7116 727.8431,410.0105 L727.8431,412.7331 Q727.2123,412.1521 726.6188,411.8823 Q726.0253,411.6125 725.3944,411.6125 Q724.0497,411.6125 723.3649,412.6792 Q722.6801,413.7458 722.6801,415.8459 Q722.6801,417.9377 723.3649,419.0044 Q724.0497,420.071 725.3944,420.071 Q726.0253,420.071 726.6188,419.8012 Q727.2123,419.5315 727.8431,418.9504 Z " fill="#000000"/><text fill="#000000" font-family="Verdana" font-size="14" lengthAdjust="spacing" textLength="165.6074" x="737.37" y="421.0979">CalendarMappedRecord</text><line style="stroke:#000000;stroke-width:1;" x1="713.37" x2="904.9774" y1="429.53" y2="429.53"/><line style="stroke:#000000;stroke-width:1;" x1="713.37" x2="904.9774" y1="437.53" y2="437.53"/></g><!--class CalendarManagedConnectionFactory--><g class="entity" data-qualified-name="CalendarManagedConnectionFactory" data-source-line="15" id="ent0009"><rect fill="#FFFFFF" height="61.0146" rx="2.5" ry="2.5" style="stroke:#000000;stroke-width:1;" width="283.9512" x="157.2" y="393.03"/><ellipse cx="170.2" cy="407.03" fill="#FFFFFF" rx="9" ry="9" style="stroke:#000000;stroke-width:1;"/><path d="M172.6731,413.1731 Q172.0921,413.4719 171.4529,413.6213 Q170.8138,413.7707 170.1082,413.7707 Q167.6014,413.7707 166.2815,412.1189 Q164.9617,410.467 164.9617,407.3459 Q164.9617,404.2165 166.2815,402.5647 Q167.6014,400.9128 170.1082,400.9128 Q170.8138,400.9128 171.4612,401.0622 Q172.1087,401.2116 172.6731,401.5105 L172.6731,404.2331 Q172.0423,403.6521 171.4488,403.3823 Q170.8553,403.1125 170.2244,403.1125 Q168.8797,403.1125 168.1949,404.1792 Q167.5101,405.2458 167.5101,407.3459 Q167.5101,409.4377 168.1949,410.5044 Q168.8797,411.571 170.2244,411.571 Q170.8553,411.571 171.4488,411.3012 Q172.0423,411.0315 172.6731,410.4504 Z " fill="#000000"/><text fill="#000000" font-family="Verdana" font-size="14" lengthAdjust="spacing" textLength="255.9512" x="182.2" y="412.5979">CalendarManagedConnectionFactory</text><line style="stroke:#000000;stroke-width:1;" x1="158.2" x2="440.1512" y1="421.03" y2="421.03"/><line style="stroke:#000000;stroke-width:1;" x1="158.2" x2="440.1512" y1="429.03" y2="429.03"/><g data-visibility-modifier="PUBLIC_METHOD"><ellipse cx="168.2" cy="443.0373" fill="#FFFFFF" rx="3" ry="3" style="stroke:#000000;stroke-width:1;"/></g><text fill="#000000" font-family="Verdana" font-size="14" lengthAdjust="spacing" textLength="145.1543" x="175.2" y="447.1052">execute(spec, input)</text></g><!--class CalendarManagedConnection--><g class="entity" data-qualified-name="CalendarManagedConnection" data-source-line="18" id="ent0010"><rect fill="#FFFFFF" height="44" rx="2.5" ry="2.5" style="stroke:#000000;stroke-width:1;" width="231.9297" x="205.21" y="288.03"/><ellipse cx="218.21" cy="302.03" fill="#FFFFFF" rx="9" ry="9" style="stroke:#000000;stroke-width:1;"/><path d="M220.6831,308.1731 Q220.1021,308.4719 219.4629,308.6213 Q218.8238,308.7707 218.1182,308.7707 Q215.6114,308.7707 214.2915,307.1189 Q212.9717,305.467 212.9717,302.3459 Q212.9717,299.2165 214.2915,297.5647 Q215.6114,295.9128 218.1182,295.9128 Q218.8238,295.9128 219.4712,296.0622 Q220.1187,296.2116 220.6831,296.5105 L220.6831,299.2331 Q220.0523,298.6521 219.4588,298.3823 Q218.8653,298.1125 218.2344,298.1125 Q216.8897,298.1125 216.2049,299.1792 Q215.5201,300.2458 215.5201,302.3459 Q215.5201,304.4377 216.2049,305.5044 Q216.8897,306.571 218.2344,306.571 Q218.8653,306.571 219.4588,306.3012 Q220.0523,306.0315 220.6831,305.4504 Z " fill="#000000"/><text fill="#000000" font-family="Verdana" font-size="14" lengthAdjust="spacing" textLength="203.9297" x="230.21" y="307.5979">CalendarManagedConnection</text><line style="stroke:#000000;stroke-width:1;" x1="206.21" x2="436.1397" y1="316.03" y2="316.03"/><line style="stroke:#000000;stroke-width:1;" x1="206.21" x2="436.1397" y1="324.03" y2="324.03"/></g><g class="entity" data-qualified-name="GMN20" data-source-line="31" id="ent0021"><path d="M189.89,515.04 L189.89,572.4379 A0,0 0 0 0 189.89,572.4379 L408.4545,572.4379 A0,0 0 0 0 408.4545,572.4379 L408.4545,525.04 L398.4545,515.04 L303.17,515.04 L299.17,454.36 L295.17,515.04 L189.89,515.04 A0,0 0 0 0 189.89,515.04" fill="#FFFFFF" style="stroke:#000000;stroke-width:1;"/><path d="M398.4545,515.04 L398.4545,525.04 L408.4545,525.04 L398.4545,515.04" fill="#FFFFFF" style="stroke:#000000;stroke-width:1;"/><text fill="#000000" font-family="Verdana" font-size="13" lengthAdjust="spacing" textLength="182.311" x="195.89" y="533.1098">&#1055;&#1088;&#1080; &#1079;&#1072;&#1076;&#1072;&#1085;&#1085;&#1086;&#1084; remote URL:</text><text fill="#000000" font-family="Verdana" font-size="13" lengthAdjust="spacing" textLength="197.5645" x="195.89" y="548.9091">CREATE/CANCEL/GET &#8594; HTTP</text><text fill="#000000" font-family="Verdana" font-size="13" lengthAdjust="spacing" textLength="126.7817" x="195.89" y="564.7085">&#1082; EIS (Odoo &#1080; &#1090;.&#1076;.)</text></g><!--reverse link CalendarEisClient to CalendarConnectionFactory--><g class="link" data-entity-1="ent0002" data-entity-2="ent0004" data-link-type="aggregation" data-source-line="20" id="lnk11"><path codeLine="20" d="M200.17,102.26 C200.17,126.93 200.17,146.12 200.17,166.54" fill="none" id="CalendarEisClient-backto-CalendarConnectionFactory" style="stroke:#000000;stroke-width:1;"/><polygon fill="none" points="200.17,90.26,196.17,96.26,200.17,102.26,204.17,96.26,200.17,90.26" style="stroke:#000000;stroke-width:1;"/><text fill="#000000" font-family="Verdana" font-size="13" lengthAdjust="spacing" textLength="29.5166" x="201.17" y="134.0998">uses</text></g><!--link CalendarConnectionFactory to ConnectionFactory--><g class="link" data-entity-1="ent0004" data-entity-2="ent0003" data-link-type="extension" data-source-line="21" id="lnk12"><path codeLine="21" d="M180.69,211.3 C160.97,232.83 142.8066,252.6554 123.0166,274.2654" fill="none" id="CalendarConnectionFactory-to-ConnectionFactory" style="stroke:#000000;stroke-width:1;stroke-dasharray:7,7;"/><polygon fill="none" points="110.86,287.54,127.4415,278.3176,118.5918,270.2131,110.86,287.54" style="stroke:#000000;stroke-width:1;"/></g><!--link CalendarConnectionFactory to CalendarManagedConnection--><g class="link" data-entity-1="ent0004" data-entity-2="ent0010" data-link-type="dependency" data-source-line="22" id="lnk13"><path codeLine="22" d="M193.06,211.42 C189.68,225.78 188.1,244.48 197.17,258.03 C205.73,270.79 212.7981,277.57 226.4681,284.75" fill="none" id="CalendarConnectionFactory-to-CalendarManagedConnection" style="stroke:#000000;stroke-width:1;stroke-dasharray:7,7;"/><polygon fill="#000000" points="231.78,287.54,225.6722,279.8138,227.3534,285.215,221.9522,286.8963,231.78,287.54" style="stroke:#000000;stroke-width:1;"/><text fill="#000000" font-family="Verdana" font-size="13" lengthAdjust="spacing" textLength="79.5869" x="198.17" y="255.0998">creates MCF</text></g><!--link CalendarConnectionFactory to CalendarManagedConnection--><g class="link" data-entity-1="ent0004" data-entity-2="ent0010" data-link-type="dependency" data-source-line="23" id="lnk14"><path codeLine="23" d="M243.13,211.32 C256.67,219.38 271,229.45 282.17,241.03 C295.21,254.54 302.9821,267.8178 309.7221,282.1878" fill="none" id="CalendarConnectionFactory-to-CalendarManagedConnection-1" style="stroke:#000000;stroke-width:1;stroke-dasharray:7,7;"/><polygon fill="#000000" points="312.27,287.62,312.0696,277.7732,310.1468,283.0932,304.8268,281.1703,312.27,287.62" style="stroke:#000000;stroke-width:1;"/><text fill="#000000" font-family="Verdana" font-size="13" lengthAdjust="spacing" textLength="47.5122" x="296.52" y="255.0998">creates</text></g><!--link CalendarManagedConnection to CalendarManagedConnectionFactory--><g class="link" data-entity-1="ent0010" data-entity-2="ent0009" data-link-type="dependency" data-source-line="24" id="lnk15"><path codeLine="24" d="M316.93,332.53 C313.56,349.61 309.9712,367.8234 306.2312,386.7834" fill="none" id="CalendarManagedConnection-to-CalendarManagedConnectionFactory" style="stroke:#000000;stroke-width:1;stroke-dasharray:7,7;"/><polygon fill="#000000" points="305.07,392.67,310.7361,384.6143,306.0376,387.7645,302.8874,383.066,305.07,392.67" style="stroke:#000000;stroke-width:1;"/></g><!--link CalendarConnection to CalendarManagedConnection--><g class="link" data-entity-1="ent0005" data-entity-2="ent0010" data-link-type="dependency" data-source-line="25" id="lnk16"><path codeLine="25" d="M438.61,211.3 C412.74,232.83 377.5714,262.0913 351.6114,283.7013" fill="none" id="CalendarConnection-to-CalendarManagedConnection" style="stroke:#000000;stroke-width:1;stroke-dasharray:7,7;"/><polygon fill="#000000" points="347,287.54,356.4762,284.8563,350.8428,284.3411,351.3579,278.7078,347,287.54" style="stroke:#000000;stroke-width:1;"/></g><!--link CalendarConnection to CalendarInteraction--><g class="link" data-entity-1="ent0005" data-entity-2="ent0006" data-link-type="dependency" data-source-line="26" id="lnk17"><path codeLine="26" d="M484.38,211.3 C504.82,232.83 532.1185,261.579 552.6385,283.189" fill="none" id="CalendarConnection-to-CalendarInteraction" style="stroke:#000000;stroke-width:1;stroke-dasharray:7,7;"/><polygon fill="#000000" points="556.77,287.54,553.4734,278.2592,553.3271,283.9142,547.6721,283.7679,556.77,287.54" style="stroke:#000000;stroke-width:1;"/><text fill="#000000" font-family="Verdana" font-size="13" lengthAdjust="spacing" textLength="124.0459" x="528.44" y="255.0998">createInteraction()</text></g><!--link CalendarInteraction to CalendarInteractionSpec--><g class="link" data-entity-1="ent0006" data-entity-2="ent0007" data-link-type="dependency" data-source-line="27" id="lnk18"><path codeLine="27" d="M577.17,332.53 C577.17,352.27 577.17,375.38 577.17,395.1" fill="none" id="CalendarInteraction-to-CalendarInteractionSpec" style="stroke:#000000;stroke-width:1;stroke-dasharray:7,7;"/><polygon fill="#000000" points="577.17,401.1,581.17,392.1,577.17,396.1,573.17,392.1,577.17,401.1" style="stroke:#000000;stroke-width:1;"/></g><!--link CalendarInteraction to CalendarMappedRecord--><g class="link" data-entity-1="ent0006" data-entity-2="ent0008" data-link-type="dependency" data-source-line="28" id="lnk19"><path codeLine="28" d="M621.91,332.53 C662.99,352.27 718.1319,378.7814 759.1719,398.5014" fill="none" id="CalendarInteraction-to-CalendarMappedRecord" style="stroke:#000000;stroke-width:1;stroke-dasharray:7,7;"/><polygon fill="#000000" points="764.58,401.1,758.2003,393.5967,760.0733,398.9345,754.7355,400.8075,764.58,401.1" style="stroke:#000000;stroke-width:1;"/></g><?plantuml-src fL9BJiCm4Dtx58FO98Ac-ougLLOAbLf0RJY0SQObQc97ZiD7W8HOS00km1LOL08Xu0pf5JW9JYfGQPe62OsyiD-RDs_6iwLFCKA8GnO8aam34JF58ZXXV3fHCXK-bQ5KiDrryo24Xon9WB8GXS-K6oGq351ek280ErmXqzWJ6jLPWET3v5BvLl1zjmiE4np34iUtoGqX1NNCE0ALGY3NWHHTnhLKbokL_uwl04LbLeECOkGhw835CVeBkoL8i0dw9KkBeU05ybIZbHZDNJ03JdNUQuq48UKPoqQZkdzeGPfWGge9ZdFTNZFNJGdjQeEctkAx4nZGxlzLI3Ldeq9r6vlpwXAMjk77vDARPPDrp0g5Of_g-BysZ0Yf4KwarZ82EQxl7o1xdDzcBv0zPq_Pp9nt4n_P6oYCSgtZORzbM7JeTZotIJi7rEqtzrmFFkyVOD_pZdA9Lt1x8x0EVId1QCtld6pcsCIKXjmG-G80?></g></svg>