<?plantuml 1.2026.2?><svg xmlns="http://www.w3.org/2000/svg" xmlns:xlink="http://www.w3.org/1999/xlink" contentStyleType="text/css" data-diagram-type="CLASS" height="596px" preserveAspectRatio="none" style="width:912px;height:596px;background:#FEFEFE;" version="1.1" viewBox="0 0 912 596" width="912px" zoomAndPan="magnify"><defs/><g><rect fill="#FEFEFE" height="596" style="stroke:none;stroke-width:1;" width="912" x="0" y="0"/><!--class CalendarEisClient--><g class="entity" data-qualified-name="CalendarEisClient" data-source-line="4" id="ent0002"><rect fill="#FFFFFF" height="95.0439" rx="2.5" ry="2.5" style="stroke:#000000;stroke-width:1;" width="260.1133" x="70.12" y="12"/><ellipse cx="135.1801" cy="26" fill="#FFFFFF" rx="9" ry="9" style="stroke:#000000;stroke-width:1;"/><path d="M137.6532,32.1431 Q137.0721,32.4419 136.433,32.5913 Q135.7938,32.7407 135.0883,32.7407 Q132.5814,32.7407 131.2616,31.0889 Q129.9418,29.437 129.9418,26.3159 Q129.9418,23.1865 131.2616,21.5347 Q132.5814,19.8828 135.0883,19.8828 Q135.7938,19.8828 136.4413,20.0322 Q137.0888,20.1816 137.6532,20.4805 L137.6532,23.2031 Q137.0223,22.6221 136.4288,22.3523 Q135.8353,22.0825 135.2045,22.0825 Q133.8597,22.0825 133.1749,23.1492 Q132.4901,24.2158 132.4901,26.3159 Q132.4901,28.4077 133.1749,29.4744 Q133.8597,30.541 135.2045,30.541 Q135.8353,30.541 136.4288,30.2712 Q137.0223,30.0015 137.6532,29.4204 Z " fill="#000000"/><text fill="#000000" font-family="Verdana" font-size="14" lengthAdjust="spacing" textLength="122.4932" x="152.6801" y="31.5679">CalendarEisClient</text><line style="stroke:#000000;stroke-width:1;" x1="71.12" x2="329.2333" y1="40" y2="40"/><line style="stroke:#000000;stroke-width:1;" x1="71.12" x2="329.2333" y1="48" y2="48"/><g data-visibility-modifier="PUBLIC_METHOD"><ellipse cx="81.12" cy="62.0073" fill="#FFFFFF" rx="3" ry="3" style="stroke:#000000;stroke-width:1;"/></g><text fill="#000000" font-family="Verdana" font-size="14" lengthAdjust="spacing" textLength="236.1133" x="88.12" y="66.0752">createInterviewRecord(interview)</text><g data-visibility-modifier="PUBLIC_METHOD"><ellipse cx="81.12" cy="79.022" fill="#FFFFFF" rx="3" ry="3" style="stroke:#000000;stroke-width:1;"/></g><text fill="#000000" font-family="Verdana" font-size="14" lengthAdjust="spacing" textLength="184.3857" x="88.12" y="83.0898">cancelInterviewRecord(id)</text><g data-visibility-modifier="PUBLIC_METHOD"><ellipse cx="81.12" cy="96.0366" fill="#FFFFFF" rx="3" ry="3" style="stroke:#000000;stroke-width:1;"/></g><text fill="#000000" font-family="Verdana" font-size="14" lengthAdjust="spacing" textLength="162.9277" x="88.12" y="100.1045">getInterviewRecord(id)</text></g><!--class ConnectionFactory--><g class="entity" data-qualified-name="ConnectionFactory" data-source-line="10" id="ent0003"><rect fill="#FFFFFF" height="44" rx="2.5" ry="2.5" style="stroke:#000000;stroke-width:1;" width="158.3477" x="12" y="305.05"/><ellipse cx="25" cy="319.05" fill="#FFFFFF" rx="9" ry="9" style="stroke:#000000;stroke-width:1;"/><path d="M21.4277,315.3151 L21.4277,313.1569 L28.8071,313.1569 L28.8071,315.3151 L26.3418,315.3151 L26.3418,323.3918 L28.8071,323.3918 L28.8071,325.55 L21.4277,325.55 L21.4277,323.3918 L23.8931,323.3918 L23.8931,315.3151 Z " fill="#000000"/><text fill="#000000" font-family="Verdana" font-size="14" font-style="italic" lengthAdjust="spacing" textLength="130.3477" x="37" y="324.6179">ConnectionFactory</text><line style="stroke:#000000;stroke-width:1;" x1="13" x2="169.3477" y1="333.05" y2="333.05"/><line style="stroke:#000000;stroke-width:1;" x1="13" x2="169.3477" y1="341.05" y2="341.05"/></g><!--class CalendarConnectionFactory--><g class="entity" data-qualified-name="CalendarConnectionFactory" data-source-line="11" id="ent0004"><rect fill="#FFFFFF" height="44" rx="2.5" ry="2.5" style="stroke:#000000;stroke-width:1;" width="220.6914" x="89.83" y="184.05"/><ellipse cx="102.83" cy="198.05" fill="#FFFFFF" rx="9" ry="9" style="stroke:#000000;stroke-width:1;"/><path d="M105.3031,204.1931 Q104.7221,204.4919 104.0829,204.6413 Q103.4438,204.7907 102.7382,204.7907 Q100.2314,204.7907 98.9115,203.1389 Q97.5917,201.487 97.5917,198.3659 Q97.5917,195.2365 98.9115,193.5847 Q100.2314,191.9328 102.7382,191.9328 Q103.4438,191.9328 104.0912,192.0822 Q104.7387,192.2316 105.3031,192.5305 L105.3031,195.2531 Q104.6723,194.6721 104.0788,194.4023 Q103.4853,194.1325 102.8544,194.1325 Q101.5097,194.1325 100.8249,195.1992 Q100.1401,196.2658 100.1401,198.3659 Q100.1401,200.4577 100.8249,201.5244 Q101.5097,202.591 102.8544,202.591 Q103.4853,202.591 104.0788,202.3212 Q104.6723,202.0515 105.3031,201.4704 Z " fill="#000000"/><text fill="#000000" font-family="Verdana" font-size="14" lengthAdjust="spacing" textLength="192.6914" x="114.83" y="203.6179">CalendarConnectionFactory</text><line style="stroke:#000000;stroke-width:1;" x1="90.83" x2="309.5214" y1="212.05" y2="212.05"/><line style="stroke:#000000;stroke-width:1;" x1="90.83" x2="309.5214" y1="220.05" y2="220.05"/></g><!--class CalendarConnection--><g class="entity" data-qualified-name="CalendarConnection" data-source-line="12" id="ent0005"><rect fill="#FFFFFF" height="44" rx="2.5" ry="2.5" style="stroke:#000000;stroke-width:1;" width="168.6699" x="379.84" y="184.05"/><ellipse cx="392.84" cy="198.05" fill="#FFFFFF" rx="9" ry="9" style="stroke:#000000;stroke-width:1;"/><path d="M395.3131,204.1931 Q394.7321,204.4919 394.0929,204.6413 Q393.4538,204.7907 392.7482,204.7907 Q390.2414,204.7907 388.9215,203.1389 Q387.6017,201.487 387.6017,198.3659 Q387.6017,195.2365 388.9215,193.5847 Q390.2414,191.9328 392.7482,191.9328 Q393.4538,191.9328 394.1012,192.0822 Q394.7487,192.2316 395.3131,192.5305 L395.3131,195.2531 Q394.6823,194.6721 394.0888,194.4023 Q393.4953,194.1325 392.8644,194.1325 Q391.5197,194.1325 390.8349,195.1992 Q390.1501,196.2658 390.1501,198.3659 Q390.1501,200.4577 390.8349,201.5244 Q391.5197,202.591 392.8644,202.591 Q393.4953,202.591 394.0888,202.3212 Q394.6823,202.0515 395.3131,201.4704 Z " fill="#000000"/><text fill="#000000" font-family="Verdana" font-size="14" lengthAdjust="spacing" textLength="140.6699" x="404.84" y="203.6179">CalendarConnection</text><line style="stroke:#000000;stroke-width:1;" x1="380.84" x2="547.5099" y1="212.05" y2="212.05"/><line style="stroke:#000000;stroke-width:1;" x1="380.84" x2="547.5099" y1="220.05" y2="220.05"/></g><!--class CalendarInteraction--><g class="entity" data-qualified-name="CalendarInteraction" data-source-line="13" id="ent0006"><rect fill="#FFFFFF" height="44" rx="2.5" ry="2.5" style="stroke:#000000;stroke-width:1;" width="167.3301" x="493.51" y="305.05"/><ellipse cx="506.51" cy="319.05" fill="#FFFFFF" rx="9" ry="9" style="stroke:#000000;stroke-width:1;"/><path d="M508.9831,325.1931 Q508.4021,325.4919 507.7629,325.6413 Q507.1238,325.7907 506.4182,325.7907 Q503.9114,325.7907 502.5915,324.1389 Q501.2717,322.487 501.2717,319.3659 Q501.2717,316.2365 502.5915,314.5847 Q503.9114,312.9328 506.4182,312.9328 Q507.1238,312.9328 507.7712,313.0822 Q508.4187,313.2316 508.9831,313.5305 L508.9831,316.2531 Q508.3523,315.6721 507.7588,315.4023 Q507.1653,315.1325 506.5344,315.1325 Q505.1897,315.1325 504.5049,316.1992 Q503.8201,317.2658 503.8201,319.3659 Q503.8201,321.4577 504.5049,322.5244 Q505.1897,323.591 506.5344,323.591 Q507.1653,323.591 507.7588,323.3212 Q508.3523,323.0515 508.9831,322.4704 Z " fill="#000000"/><text fill="#000000" font-family="Verdana" font-size="14" lengthAdjust="spacing" textLength="139.3301" x="518.51" y="324.6179">CalendarInteraction</text><line style="stroke:#000000;stroke-width:1;" x1="494.51" x2="659.8401" y1="333.05" y2="333.05"/><line style="stroke:#000000;stroke-width:1;" x1="494.51" x2="659.8401" y1="341.05" y2="341.05"/></g><!--class CalendarInteractionSpec--><g class="entity" data-qualified-name="CalendarInteractionSpec" data-source-line="14" id="ent0007"><rect fill="#FFFFFF" height="44" rx="2.5" ry="2.5" style="stroke:#000000;stroke-width:1;" width="201.2568" x="476.55" y="418.55"/><ellipse cx="489.55" cy="432.55" fill="#FFFFFF" rx="9" ry="9" style="stroke:#000000;stroke-width:1;"/><path d="M492.0231,438.6931 Q491.4421,438.9919 490.8029,439.1413 Q490.1638,439.2907 489.4582,439.2907 Q486.9514,439.2907 485.6315,437.6389 Q484.3117,435.987 484.3117,432.8659 Q484.3117,429.7365 485.6315,428.0847 Q486.9514,426.4328 489.4582,426.4328 Q490.1638,426.4328 490.8112,426.5822 Q491.4587,426.7316 492.0231,427.0305 L492.0231,429.7531 Q491.3923,429.1721 490.7988,428.9023 Q490.2053,428.6325 489.5744,428.6325 Q488.2297,428.6325 487.5449,429.6992 Q486.8601,430.7658 486.8601,432.8659 Q486.8601,434.9577 487.5449,436.0244 Q488.2297,437.091 489.5744,437.091 Q490.2053,437.091 490.7988,436.8212 Q491.3923,436.5515 492.0231,435.9704 Z " fill="#000000"/><text fill="#000000" font-family="Verdana" font-size="14" lengthAdjust="spacing" textLength="173.2568" x="501.55" y="438.1179">CalendarInteractionSpec</text><line style="stroke:#000000;stroke-width:1;" x1="477.55" x2="676.8068" y1="446.55" y2="446.55"/><line style="stroke:#000000;stroke-width:1;" x1="477.55" x2="676.8068" y1="454.55" y2="454.55"/></g><!--class CalendarMappedRecord--><g class="entity" data-qualified-name="CalendarMappedRecord" data-source-line="15" id="ent0008"><rect fill="#FFFFFF" height="44" rx="2.5" ry="2.5" style="stroke:#000000;stroke-width:1;" width="193.6074" x="712.37" y="418.55"/><ellipse cx="725.37" cy="432.55" fill="#FFFFFF" rx="9" ry="9" style="stroke:#000000;stroke-width:1;"/><path d="M727.8431,438.6931 Q727.2621,438.9919 726.6229,439.1413 Q725.9838,439.2907 725.2782,439.2907 Q722.7714,439.2907 721.4515,437.6389 Q720.1317,435.987 720.1317,432.8659 Q720.1317,429.7365 721.4515,428.0847 Q722.7714,426.4328 725.2782,426.4328 Q725.9838,426.4328 726.6312,426.5822 Q727.2787,426.7316 727.8431,427.0305 L727.8431,429.7531 Q727.2123,429.1721 726.6188,428.9023 Q726.0253,428.6325 725.3944,428.6325 Q724.0497,428.6325 723.3649,429.6992 Q722.6801,430.7658 722.6801,432.8659 Q722.6801,434.9577 723.3649,436.0244 Q724.0497,437.091 725.3944,437.091 Q726.0253,437.091 726.6188,436.8212 Q727.2123,436.5515 727.8431,435.9704 Z " fill="#000000"/><text fill="#000000" font-family="Verdana" font-size="14" lengthAdjust="spacing" textLength="165.6074" x="737.37" y="438.1179">CalendarMappedRecord</text><line style="stroke:#000000;stroke-width:1;" x1="713.37" x2="904.9774" y1="446.55" y2="446.55"/><line style="stroke:#000000;stroke-width:1;" x1="713.37" x2="904.9774" y1="454.55" y2="454.55"/></g><!--class CalendarManagedConnectionFactory--><g class="entity" data-qualified-name="CalendarManagedConnectionFactory" data-source-line="16" id="ent0009"><rect fill="#FFFFFF" height="61.0146" rx="2.5" ry="2.5" style="stroke:#000000;stroke-width:1;" width="283.9512" x="157.2" y="410.05"/><ellipse cx="170.2" cy="424.05" fill="#FFFFFF" rx="9" ry="9" style="stroke:#000000;stroke-width:1;"/><path d="M172.6731,430.1931 Q172.0921,430.4919 171.4529,430.6413 Q170.8138,430.7907 170.1082,430.7907 Q167.6014,430.7907 166.2815,429.1389 Q164.9617,427.487 164.9617,424.3659 Q164.9617,421.2365 166.2815,419.5847 Q167.6014,417.9328 170.1082,417.9328 Q170.8138,417.9328 171.4612,418.0822 Q172.1087,418.2316 172.6731,418.5305 L172.6731,421.2531 Q172.0423,420.6721 171.4488,420.4023 Q170.8553,420.1325 170.2244,420.1325 Q168.8797,420.1325 168.1949,421.1992 Q167.5101,422.2658 167.5101,424.3659 Q167.5101,426.4577 168.1949,427.5244 Q168.8797,428.591 170.2244,428.591 Q170.8553,428.591 171.4488,428.3212 Q172.0423,428.0515 172.6731,427.4704 Z " fill="#000000"/><text fill="#000000" font-family="Verdana" font-size="14" lengthAdjust="spacing" textLength="255.9512" x="182.2" y="429.6179">CalendarManagedConnectionFactory</text><line style="stroke:#000000;stroke-width:1;" x1="158.2" x2="440.1512" y1="438.05" y2="438.05"/><line style="stroke:#000000;stroke-width:1;" x1="158.2" x2="440.1512" y1="446.05" y2="446.05"/><g data-visibility-modifier="PUBLIC_METHOD"><ellipse cx="168.2" cy="460.0573" fill="#FFFFFF" rx="3" ry="3" style="stroke:#000000;stroke-width:1;"/></g><text fill="#000000" font-family="Verdana" font-size="14" lengthAdjust="spacing" textLength="145.1543" x="175.2" y="464.1252">execute(spec, input)</text></g><!--class CalendarManagedConnection--><g class="entity" data-qualified-name="CalendarManagedConnection" data-source-line="19" id="ent0010"><rect fill="#FFFFFF" height="44" rx="2.5" ry="2.5" style="stroke:#000000;stroke-width:1;" width="231.9297" x="205.21" y="305.05"/><ellipse cx="218.21" cy="319.05" fill="#FFFFFF" rx="9" ry="9" style="stroke:#000000;stroke-width:1;"/><path d="M220.6831,325.1931 Q220.1021,325.4919 219.4629,325.6413 Q218.8238,325.7907 218.1182,325.7907 Q215.6114,325.7907 214.2915,324.1389 Q212.9717,322.487 212.9717,319.3659 Q212.9717,316.2365 214.2915,314.5847 Q215.6114,312.9328 218.1182,312.9328 Q218.8238,312.9328 219.4712,313.0822 Q220.1187,313.2316 220.6831,313.5305 L220.6831,316.2531 Q220.0523,315.6721 219.4588,315.4023 Q218.8653,315.1325 218.2344,315.1325 Q216.8897,315.1325 216.2049,316.1992 Q215.5201,317.2658 215.5201,319.3659 Q215.5201,321.4577 216.2049,322.5244 Q216.8897,323.591 218.2344,323.591 Q218.8653,323.591 219.4588,323.3212 Q220.0523,323.0515 220.6831,322.4704 Z " fill="#000000"/><text fill="#000000" font-family="Verdana" font-size="14" lengthAdjust="spacing" textLength="203.9297" x="230.21" y="324.6179">CalendarManagedConnection</text><line style="stroke:#000000;stroke-width:1;" x1="206.21" x2="436.1397" y1="333.05" y2="333.05"/><line style="stroke:#000000;stroke-width:1;" x1="206.21" x2="436.1397" y1="341.05" y2="341.05"/></g><g class="entity" data-qualified-name="GMN20" data-source-line="32" id="ent0021"><path d="M189.89,532.06 L189.89,589.4579 A0,0 0 0 0 189.89,589.4579 L408.4545,589.4579 A0,0 0 0 0 408.4545,589.4579 L408.4545,542.06 L398.4545,532.06 L303.17,532.06 L299.17,471.38 L295.17,532.06 L189.89,532.06 A0,0 0 0 0 189.89,532.06" fill="#FFFFFF" style="stroke:#000000;stroke-width:1;"/><path d="M398.4545,532.06 L398.4545,542.06 L408.4545,542.06 L398.4545,532.06" fill="#FFFFFF" style="stroke:#000000;stroke-width:1;"/><text fill="#000000" font-family="Verdana" font-size="13" lengthAdjust="spacing" textLength="182.311" x="195.89" y="550.1298">&#1055;&#1088;&#1080; &#1079;&#1072;&#1076;&#1072;&#1085;&#1085;&#1086;&#1084; remote URL:</text><text fill="#000000" font-family="Verdana" font-size="13" lengthAdjust="spacing" textLength="197.5645" x="195.89" y="565.9291">CREATE/CANCEL/GET &#8594; HTTP</text><text fill="#000000" font-family="Verdana" font-size="13" lengthAdjust="spacing" textLength="89.7051" x="195.89" y="581.7285">&#1082; external-eis</text></g><!--reverse link CalendarEisClient to CalendarConnectionFactory--><g class="link" data-entity-1="ent0002" data-entity-2="ent0004" data-link-type="aggregation" data-source-line="21" id="lnk11"><path codeLine="21" d="M200.17,119.45 C200.17,145.16 200.17,163.78 200.17,183.78" fill="none" id="CalendarEisClient-backto-CalendarConnectionFactory" style="stroke:#000000;stroke-width:1;"/><polygon fill="none" points="200.17,107.45,196.17,113.45,200.17,119.45,204.17,113.45,200.17,107.45" style="stroke:#000000;stroke-width:1;"/><text fill="#000000" font-family="Verdana" font-size="13" lengthAdjust="spacing" textLength="29.5166" x="201.17" y="151.1198">uses</text></g><!--link CalendarConnectionFactory to ConnectionFactory--><g class="link" data-entity-1="ent0004" data-entity-2="ent0003" data-link-type="extension" data-source-line="22" id="lnk12"><path codeLine="22" d="M180.69,228.32 C160.97,249.85 142.8066,269.6754 123.0166,291.2854" fill="none" id="CalendarConnectionFactory-to-ConnectionFactory" style="stroke:#000000;stroke-width:1;stroke-dasharray:7,7;"/><polygon fill="none" points="110.86,304.56,127.4415,295.3376,118.5918,287.2331,110.86,304.56" style="stroke:#000000;stroke-width:1;"/></g><!--link CalendarConnectionFactory to CalendarManagedConnection--><g class="link" data-entity-1="ent0004" data-entity-2="ent0010" data-link-type="dependency" data-source-line="23" id="lnk13"><path codeLine="23" d="M193.06,228.44 C189.68,242.8 188.1,261.5 197.17,275.05 C205.73,287.81 212.7981,294.59 226.4681,301.77" fill="none" id="CalendarConnectionFactory-to-CalendarManagedConnection" style="stroke:#000000;stroke-width:1;stroke-dasharray:7,7;"/><polygon fill="#000000" points="231.78,304.56,225.6722,296.8338,227.3534,302.235,221.9522,303.9163,231.78,304.56" style="stroke:#000000;stroke-width:1;"/><text fill="#000000" font-family="Verdana" font-size="13" lengthAdjust="spacing" textLength="79.5869" x="198.17" y="272.1198">creates MCF</text></g><!--link CalendarConnectionFactory to CalendarManagedConnection--><g class="link" data-entity-1="ent0004" data-entity-2="ent0010" data-link-type="dependency" data-source-line="24" id="lnk14"><path codeLine="24" d="M243.13,228.34 C256.67,236.4 271,246.47 282.17,258.05 C295.21,271.56 302.9821,284.8378 309.7221,299.2078" fill="none" id="CalendarConnectionFactory-to-CalendarManagedConnection-1" style="stroke:#000000;stroke-width:1;stroke-dasharray:7,7;"/><polygon fill="#000000" points="312.27,304.64,312.0696,294.7932,310.1468,300.1132,304.8268,298.1903,312.27,304.64" style="stroke:#000000;stroke-width:1;"/><text fill="#000000" font-family="Verdana" font-size="13" lengthAdjust="spacing" textLength="47.5122" x="296.52" y="272.1198">creates</text></g><!--link CalendarManagedConnection to CalendarManagedConnectionFactory--><g class="link" data-entity-1="ent0010" data-entity-2="ent0009" data-link-type="dependency" data-source-line="25" id="lnk15"><path codeLine="25" d="M316.93,349.55 C313.56,366.63 309.9712,384.8434 306.2312,403.8034" fill="none" id="CalendarManagedConnection-to-CalendarManagedConnectionFactory" style="stroke:#000000;stroke-width:1;stroke-dasharray:7,7;"/><polygon fill="#000000" points="305.07,409.69,310.7361,401.6343,306.0376,404.7845,302.8874,400.086,305.07,409.69" style="stroke:#000000;stroke-width:1;"/></g><!--link CalendarConnection to CalendarManagedConnection--><g class="link" data-entity-1="ent0005" data-entity-2="ent0010" data-link-type="dependency" data-source-line="26" id="lnk16"><path codeLine="26" d="M438.61,228.32 C412.74,249.85 377.5714,279.1113 351.6114,300.7213" fill="none" id="CalendarConnection-to-CalendarManagedConnection" style="stroke:#000000;stroke-width:1;stroke-dasharray:7,7;"/><polygon fill="#000000" points="347,304.56,356.4762,301.8763,350.8428,301.3611,351.3579,295.7278,347,304.56" style="stroke:#000000;stroke-width:1;"/></g><!--link CalendarConnection to CalendarInteraction--><g class="link" data-entity-1="ent0005" data-entity-2="ent0006" data-link-type="dependency" data-source-line="27" id="lnk17"><path codeLine="27" d="M484.38,228.32 C504.82,249.85 532.1185,278.599 552.6385,300.209" fill="none" id="CalendarConnection-to-CalendarInteraction" style="stroke:#000000;stroke-width:1;stroke-dasharray:7,7;"/><polygon fill="#000000" points="556.77,304.56,553.4734,295.2792,553.3271,300.9342,547.6721,300.7879,556.77,304.56" style="stroke:#000000;stroke-width:1;"/><text fill="#000000" font-family="Verdana" font-size="13" lengthAdjust="spacing" textLength="124.0459" x="528.44" y="272.1198">createInteraction()</text></g><!--link CalendarInteraction to CalendarInteractionSpec--><g class="link" data-entity-1="ent0006" data-entity-2="ent0007" data-link-type="dependency" data-source-line="28" id="lnk18"><path codeLine="28" d="M577.17,349.55 C577.17,369.29 577.17,392.4 577.17,412.12" fill="none" id="CalendarInteraction-to-CalendarInteractionSpec" style="stroke:#000000;stroke-width:1;stroke-dasharray:7,7;"/><polygon fill="#000000" points="577.17,418.12,581.17,409.12,577.17,413.12,573.17,409.12,577.17,418.12" style="stroke:#000000;stroke-width:1;"/></g><!--link CalendarInteraction to CalendarMappedRecord--><g class="link" data-entity-1="ent0006" data-entity-2="ent0008" data-link-type="dependency" data-source-line="29" id="lnk19"><path codeLine="29" d="M621.91,349.55 C662.99,369.29 718.1319,395.8014 759.1719,415.5214" fill="none" id="CalendarInteraction-to-CalendarMappedRecord" style="stroke:#000000;stroke-width:1;stroke-dasharray:7,7;"/><polygon fill="#000000" points="764.58,418.12,758.2003,410.6167,760.0733,415.9545,754.7355,417.8275,764.58,418.12" style="stroke:#000000;stroke-width:1;"/></g><?plantuml-src fL91IWCn5Dtd55_Sj6ZRVHU54cPKQ4NgU80qyrj3Pv8XoMX51LSUm0ju1HU28kePnYju4ZDJbDhfT0G9MIJl_VVV-_mjUuenGX8n8OcP2PampM8OCpwRQfNAaAf8QTZslVmGmYDc350MeGoPzeIXaK1fuP80x72DpEA1jAZF19wFa2iTDiJtkrbmcEGObJXX0KxHhaEk2Ib49emZK2KbSYkKz1ctIb-iUFexlW8KdLaDSfmWNq67B4amNDWjGP9DCInPMemBvyXJYmtZD7V1ZJwrUTOQ2KBAqrUjLdL-w49gq91gGhjzrLiprqq5lMg3hjzY4GmCgVz_5LBDsQXG7MDpNLt1qZRyc5pwQpJ9EcQ5Gh5FTVnV6qQaiWXZPQsAGKtgymDaznytsJDaJzb3zkZkcpllsIjeZ7Ejaz6WwrXqvFK3hqFxXzGRTFQy03vlxs0_28voYHV0kNCdMTH2OOXh2RaHyWK0?></g></svg>