<?plantuml 1.2026.2?><svg xmlns="http://www.w3.org/2000/svg" xmlns:xlink="http://www.w3.org/1999/xlink" contentStyleType="text/css" data-diagram-type="DESCRIPTION" height="545px" preserveAspectRatio="none" style="width:920px;height:545px;background:#FEFEFE;" version="1.1" viewBox="0 0 920 545" width="920px" zoomAndPan="magnify"><defs/><g><rect fill="#FEFEFE" height="545" style="stroke:none;stroke-width:1;" width="920" x="0" y="0"/><!--cluster c--><g class="cluster" data-qualified-name="c" data-source-line="5" id="ent0002"><polygon fill="#FFFFFF" points="335.67,21,345.67,11,533.67,11,533.67,98.02,523.67,108.02,335.67,108.02,335.67,21" style="stroke:#000000;stroke-width:1;"/><line style="stroke:#000000;stroke-width:1;" x1="523.67" x2="533.67" y1="21" y2="11"/><line style="stroke:#000000;stroke-width:1;" x1="335.67" x2="523.67" y1="21" y2="21"/><line style="stroke:#000000;stroke-width:1;" x1="523.67" x2="523.67" y1="21" y2="108.02"/><text fill="#000000" font-family="Verdana" font-size="14" font-weight="bold" lengthAdjust="spacing" textLength="57.6748" x="401.8326" y="38.0752">&#1050;&#1083;&#1080;&#1077;&#1085;&#1090;</text></g><!--cluster munir--><g class="cluster" data-qualified-name="munir" data-source-line="9" id="ent0004"><polygon fill="#E3F2FD" points="345.67,183.02,355.67,173.02,523.67,173.02,523.67,301.06,513.67,311.06,345.67,311.06,345.67,183.02" style="stroke:#000000;stroke-width:1;"/><line style="stroke:#000000;stroke-width:1;" x1="513.67" x2="523.67" y1="183.02" y2="173.02"/><line style="stroke:#000000;stroke-width:1;" x1="345.67" x2="513.67" y1="183.02" y2="183.02"/><line style="stroke:#000000;stroke-width:1;" x1="513.67" x2="513.67" y1="183.02" y2="311.06"/><text fill="#000000" font-family="Verdana" font-size="14" font-weight="bold" lengthAdjust="spacing" textLength="99.9824" x="380.6788" y="200.0952">helios-munir</text></g><!--cluster grisha--><g class="cluster" data-qualified-name="grisha" data-source-line="13" id="ent0006"><polygon fill="#E8F5E9" points="71.67,183.02,81.67,173.02,275.67,173.02,275.67,301.06,265.67,311.06,71.67,311.06,71.67,183.02" style="stroke:#000000;stroke-width:1;"/><line style="stroke:#000000;stroke-width:1;" x1="265.67" x2="275.67" y1="183.02" y2="173.02"/><line style="stroke:#000000;stroke-width:1;" x1="71.67" x2="265.67" y1="183.02" y2="183.02"/><line style="stroke:#000000;stroke-width:1;" x1="265.67" x2="265.67" y1="183.02" y2="311.06"/><text fill="#000000" font-family="Verdana" font-size="14" font-weight="bold" lengthAdjust="spacing" textLength="102.6416" x="118.3492" y="200.0952">helios-grisha</text></g><!--cluster infra--><g class="cluster" data-qualified-name="infra" data-source-line="17" id="ent0008"><polygon fill="#FFFDE7" points="207.67,418.06,217.67,408.06,501.67,408.06,501.67,518.09,491.67,528.09,207.67,528.09,207.67,418.06" style="stroke:#000000;stroke-width:1;"/><line style="stroke:#000000;stroke-width:1;" x1="491.67" x2="501.67" y1="418.06" y2="408.06"/><line style="stroke:#000000;stroke-width:1;" x1="207.67" x2="491.67" y1="418.06" y2="418.06"/><line style="stroke:#000000;stroke-width:1;" x1="491.67" x2="491.67" y1="418.06" y2="528.09"/><text fill="#000000" font-family="Verdana" font-size="14" font-weight="bold" lengthAdjust="spacing" textLength="192.2402" x="254.5499" y="435.1352">&#1054;&#1073;&#1097;&#1072;&#1103; &#1080;&#1085;&#1092;&#1088;&#1072;&#1089;&#1090;&#1088;&#1091;&#1082;&#1090;&#1091;&#1088;&#1072;</text></g><!--cluster eis--><g class="cluster" data-qualified-name="eis" data-source-line="22" id="ent0011"><polygon fill="#FFF8E1" points="722.67,191.52,732.67,181.52,903.67,181.52,903.67,292.55,893.67,302.55,722.67,302.55,722.67,191.52" style="stroke:#000000;stroke-width:1;"/><line style="stroke:#000000;stroke-width:1;" x1="893.67" x2="903.67" y1="191.52" y2="181.52"/><line style="stroke:#000000;stroke-width:1;" x1="722.67" x2="893.67" y1="191.52" y2="191.52"/><line style="stroke:#000000;stroke-width:1;" x1="893.67" x2="893.67" y1="191.52" y2="302.55"/><text fill="#000000" font-family="Verdana" font-size="14" font-weight="bold" lengthAdjust="spacing" textLength="105.1709" x="756.5846" y="208.5952">&#1042;&#1085;&#1077;&#1096;&#1085;&#1103;&#1103; EIS</text></g><!--entity browser--><g class="entity" data-qualified-name="c.browser" data-source-line="6" id="ent0003"><rect fill="#FFFFFF" height="40.0146" rx="2.5" ry="2.5" style="stroke:#000000;stroke-width:1;" width="166.2539" x="351.54" y="52"/><polygon fill="#FFFFFF" points="500.7939,57,500.7939,71,512.7939,71,512.7939,63,506.7939,57,500.7939,57" style="stroke:#000000;stroke-width:1;"/><line style="stroke:#000000;stroke-width:1;" x1="506.7939" x2="506.7939" y1="57" y2="63"/><line style="stroke:#000000;stroke-width:1;" x1="512.7939" x2="506.7939" y1="63" y2="63"/><text fill="#000000" font-family="Verdana" font-size="14" lengthAdjust="spacing" textLength="136.2539" x="361.54" y="79.0752">&#1041;&#1088;&#1072;&#1091;&#1079;&#1077;&#1088; / Postman</text></g><!--entity api--><g class="entity" data-qualified-name="munir.api" data-source-line="10" id="ent0005"><rect fill="#FFFFFF" height="81.0439" rx="2.5" ry="2.5" style="stroke:#000000;stroke-width:1;" width="145.1846" x="362.08" y="214.02"/><rect fill="#FFFFFF" height="10" style="stroke:#000000;stroke-width:1;" width="15" x="487.2646" y="219.02"/><rect fill="#FFFFFF" height="2" style="stroke:#000000;stroke-width:1;" width="4" x="485.2646" y="221.02"/><rect fill="#FFFFFF" height="2" style="stroke:#000000;stroke-width:1;" width="4" x="485.2646" y="225.02"/><text fill="#000000" font-family="Verdana" font-size="14" lengthAdjust="spacing" textLength="82.7217" x="377.08" y="248.0952">Spring Boot</text><text fill="#000000" font-family="Verdana" font-size="14" lengthAdjust="spacing" textLength="105.1846" x="377.08" y="265.1098">APP_ROLE=api</text><text fill="#000000" font-family="Verdana" font-size="14" lengthAdjust="spacing" textLength="65.8984" x="377.08" y="282.1245">(app-api)</text></g><!--entity worker--><g class="entity" data-qualified-name="grisha.worker" data-source-line="14" id="ent0007"><rect fill="#FFFFFF" height="81.0439" rx="2.5" ry="2.5" style="stroke:#000000;stroke-width:1;" width="172.7402" x="87.3" y="214.02"/><rect fill="#FFFFFF" height="10" style="stroke:#000000;stroke-width:1;" width="15" x="240.0402" y="219.02"/><rect fill="#FFFFFF" height="2" style="stroke:#000000;stroke-width:1;" width="4" x="238.0402" y="221.02"/><rect fill="#FFFFFF" height="2" style="stroke:#000000;stroke-width:1;" width="4" x="238.0402" y="225.02"/><text fill="#000000" font-family="Verdana" font-size="14" lengthAdjust="spacing" textLength="82.7217" x="102.3" y="248.0952">Spring Boot</text><text fill="#000000" font-family="Verdana" font-size="14" lengthAdjust="spacing" textLength="132.7402" x="102.3" y="265.1098">APP_ROLE=worker</text><text fill="#000000" font-family="Verdana" font-size="14" lengthAdjust="spacing" textLength="93.4541" x="102.3" y="282.1245">(app-worker)</text></g><!--entity pgmain--><g class="entity" data-qualified-name="infra.pgmain" data-source-line="18" id="ent0009"><path d="M224.09,459.06 C224.09,449.06 274.675,449.06 274.675,449.06 C274.675,449.06 325.2599,449.06 325.2599,459.06 L325.2599,502.0893 C325.2599,512.0893 274.675,512.0893 274.675,512.0893 C274.675,512.0893 224.09,512.0893 224.09,502.0893 L224.09,459.06" fill="#FFFFFF" style="stroke:#000000;stroke-width:1;"/><path d="M224.09,459.06 C224.09,469.06 274.675,469.06 274.675,469.06 C274.675,469.06 325.2599,469.06 325.2599,459.06" fill="none" style="stroke:#000000;stroke-width:1;"/><text fill="#000000" font-family="Verdana" font-size="14" lengthAdjust="spacing" textLength="81.1699" x="234.09" y="487.1352">PostgreSQL</text><text fill="#000000" font-family="Verdana" font-size="14" lengthAdjust="spacing" textLength="72.2012" x="234.09" y="504.1498">(&#1086;&#1076;&#1085;&#1072; &#1041;&#1044;)</text></g><!--entity kafka--><g class="entity" data-qualified-name="infra.kafka" data-source-line="19" id="ent0010"><path d="M365.12,458.56 L480.2157,458.56 C485.2157,458.56 485.2157,480.5746 485.2157,480.5746 C485.2157,480.5746 485.2157,502.5893 480.2157,502.5893 L365.12,502.5893 C360.12,502.5893 360.12,480.5746 360.12,480.5746 C360.12,480.5746 360.12,458.56 365.12,458.56" fill="#FFFFFF" style="stroke:#000000;stroke-width:1;"/><path d="M480.2157,458.56 C475.2157,458.56 475.2157,480.5746 475.2157,480.5746 C475.2157,502.5893 480.2157,502.5893 480.2157,502.5893" fill="none" style="stroke:#000000;stroke-width:1;"/><text fill="#000000" font-family="Verdana" font-size="14" lengthAdjust="spacing" textLength="39.7236" x="365.12" y="477.6352">Kafka</text><text fill="#000000" font-family="Verdana" font-size="14" lengthAdjust="spacing" textLength="105.0957" x="365.12" y="494.6498">(+ ZooKeeper)</text></g><!--entity exteis--><g class="entity" data-qualified-name="eis.exteis" data-source-line="23" id="ent0012"><rect fill="#FFFFFF" height="64.0293" rx="2.5" ry="2.5" style="stroke:#000000;stroke-width:1;" width="123.3984" x="750.97" y="222.52"/><rect fill="#FFFFFF" height="10" style="stroke:#000000;stroke-width:1;" width="15" x="854.3684" y="227.52"/><rect fill="#FFFFFF" height="2" style="stroke:#000000;stroke-width:1;" width="4" x="852.3684" y="229.52"/><rect fill="#FFFFFF" height="2" style="stroke:#000000;stroke-width:1;" width="4" x="852.3684" y="233.52"/><text fill="#000000" font-family="Verdana" font-size="14" lengthAdjust="spacing" textLength="83.3984" x="765.97" y="256.5952">external-eis</text><text fill="#000000" font-family="Verdana" font-size="14" lengthAdjust="spacing" textLength="83.0977" x="765.97" y="273.6098">HTTP :8090</text></g><!--link browser to api--><g class="link" data-entity-1="ent0003" data-entity-2="ent0005" data-link-type="dependency" data-source-line="26" id="lnk13"><path d="M412.93,92.18 C404.6,100.95 396.04,112.05 391.67,124.02 C380.78,153.84 390.1716,182.6765 404.3616,208.3965" fill="none" id="browser-to-api" style="stroke:#000000;stroke-width:1;"/><polygon fill="#000000" points="407.26,213.65,406.4147,203.8375,404.8447,209.2721,399.4101,207.702,407.26,213.65" style="stroke:#000000;stroke-width:1;"/><text fill="#000000" font-family="Verdana" font-size="13" lengthAdjust="spacing" textLength="33.6299" x="395.336" y="138.0898">HTTP</text><text fill="#000000" font-family="Verdana" font-size="13" lengthAdjust="spacing" textLength="38.9619" x="392.67" y="153.8891">:8080</text></g><!--link browser to api--><g class="link" data-entity-1="ent0003" data-entity-2="ent0005" data-link-type="dependency" data-source-line="27" id="lnk14"><path d="M435.14,92.38 C435.35,101.91 435.57,113.57 435.67,124.02 C435.97,154.04 435.7597,181.9705 435.4197,207.5705" fill="none" id="browser-to-api-1" style="stroke:#000000;stroke-width:1;stroke-dasharray:7,7;"/><polygon fill="#000000" points="435.34,213.57,439.4592,204.6239,435.4064,208.5704,431.4599,204.5177,435.34,213.57" style="stroke:#000000;stroke-width:1;"/><text fill="#000000" font-family="Verdana" font-size="13" lengthAdjust="spacing" textLength="72.8076" x="436.79" y="138.0898">WebSocket</text><text fill="#000000" font-family="Verdana" font-size="13" lengthAdjust="spacing" textLength="23.3149" x="461.5363" y="153.8891">/ws</text></g><!--link api to pgmain--><g class="link" data-entity-1="ent0005" data-entity-2="ent0009" data-link-type="dependency" data-source-line="29" id="lnk15"><path d="M411.87,295.43 C406.15,305.68 400.1,316.73 394.67,327.06 C379.7,355.57 386.3,370.18 362.67,392.06 C355.65,398.56 350.45,394.48 342.67,400.06 C324.22,413.29 311.1724,427.7618 298.9724,444.0118" fill="none" id="api-to-pgmain" style="stroke:#000000;stroke-width:1;"/><polygon fill="#000000" points="295.37,448.81,303.9724,444.0142,298.372,444.8115,297.5747,439.2111,295.37,448.81" style="stroke:#000000;stroke-width:1;"/><text fill="#000000" font-family="Verdana" font-size="13" lengthAdjust="spacing" textLength="71.7666" x="412.7674" y="357.1298">JDBC / JTA</text><text fill="#000000" font-family="Verdana" font-size="13" lengthAdjust="spacing" textLength="105.9614" x="395.67" y="372.9291">(XA datasource)</text></g><!--link worker to pgmain--><g class="link" data-entity-1="ent0007" data-entity-2="ent0009" data-link-type="dependency" data-source-line="30" id="lnk16"><path d="M86.84,279.21 C63.64,289.93 41.26,305.27 27.67,327.06 C12.38,351.57 11,368.47 27.67,392.06 C71.97,454.76 159.2221,472.315 217.6121,477.345" fill="none" id="worker-to-pgmain" style="stroke:#000000;stroke-width:1;"/><polygon fill="#000000" points="223.59,477.86,214.9665,473.1023,218.6084,477.4309,214.2799,481.0728,223.59,477.86" style="stroke:#000000;stroke-width:1;"/><text fill="#000000" font-family="Verdana" font-size="13" lengthAdjust="spacing" textLength="71.7666" x="60.7034" y="357.1298">JDBC / JTA</text><text fill="#000000" font-family="Verdana" font-size="13" lengthAdjust="spacing" textLength="135.8335" x="28.67" y="372.9291">(&#1090;&#1086;&#1090; &#1078;&#1077; &#1082;&#1083;&#1072;&#1089;&#1090;&#1077;&#1088; &#1041;&#1044;)</text></g><!--link api to kafka--><g class="link" data-entity-1="ent0005" data-entity-2="ent0010" data-link-type="dependency" data-source-line="32" id="lnk17"><path d="M487.69,295.21 C496.63,304.59 504.64,315.32 509.67,327.06 C521.04,353.62 520.69,365.35 509.67,392.06 C498.4,419.39 478.7319,439.001 458.6319,454.671" fill="none" id="api-to-kafka" style="stroke:#000000;stroke-width:1;"/><polygon fill="#000000" points="453.9,458.36,463.4572,455.9811,457.8433,455.2858,458.5385,449.6719,453.9,458.36" style="stroke:#000000;stroke-width:1;"/><text fill="#000000" font-family="Verdana" font-size="13" lengthAdjust="spacing" textLength="73.1377" x="555.3596" y="349.1298">producer +</text><text fill="#000000" font-family="Verdana" font-size="13" lengthAdjust="spacing" textLength="63.8257" x="560.0156" y="364.9291">consumer</text><text fill="#000000" font-family="Verdana" font-size="13" lengthAdjust="spacing" textLength="145.7168" x="519.07" y="380.7285">(application.screened)</text></g><!--link worker to kafka--><g class="link" data-entity-1="ent0007" data-entity-2="ent0010" data-link-type="dependency" data-source-line="33" id="lnk18"><path d="M169.63,295.4 C168.88,326.63 173.69,368.59 200.67,392.06 C212.59,402.43 328.24,393.63 342.67,400.06 C370.57,412.5 390.5974,434.487 404.7774,453.537" fill="none" id="worker-to-kafka" style="stroke:#000000;stroke-width:1;"/><polygon fill="#000000" points="408.36,458.35,406.1948,448.7421,405.3745,454.3392,399.7774,453.5189,408.36,458.35" style="stroke:#000000;stroke-width:1;"/><text fill="#000000" font-family="Verdana" font-size="13" lengthAdjust="spacing" textLength="63.8257" x="245.9893" y="341.1298">consumer</text><text fill="#000000" font-family="Verdana" font-size="13" lengthAdjust="spacing" textLength="152.4644" x="201.67" y="356.9291">(application.submitted)</text><text fill="#000000" font-family="Verdana" font-size="13" lengthAdjust="spacing" textLength="57.9287" x="248.9378" y="372.7285">producer</text><text fill="#000000" font-family="Verdana" font-size="13" lengthAdjust="spacing" textLength="145.7168" x="205.0438" y="388.5278">(application.screened)</text></g><!--link api to exteis--><g class="link" data-entity-1="ent0005" data-entity-2="ent0012" data-link-type="dependency" data-source-line="35" id="lnk19"><path d="M507.55,254.54 C578.14,254.54 677.99,254.54 744.65,254.54" fill="none" id="api-to-exteis" style="stroke:#000000;stroke-width:1;"/><polygon fill="#000000" points="750.65,254.54,741.65,250.54,745.65,254.54,741.65,258.54,750.65,254.54" style="stroke:#000000;stroke-width:1;"/><text fill="#000000" font-family="Verdana" font-size="13" lengthAdjust="spacing" textLength="79.644" x="589.4901" y="232.6098">JCA &#8594; HTTP</text><text fill="#000000" font-family="Verdana" font-size="13" lengthAdjust="spacing" textLength="207.3843" x="525.62" y="248.4091">(APP_EIS_REMOTE_BASE_URL)</text></g><?plantuml-src ZL9TQnD157tVNt5jNrhAfb4Hqu92FdRHDjAOH1G9XCbcaWp9pgmpkqGG8QOY-bHQVFB1tr31g5JItp3x5_mbtfdDsgfKP1_sxiwvvvmvzrwBHpIa44q8uuuQCnuHIKBeaM0yb2BX_QgO20dhlcUUImWr8dqnPNm80p9Hr76uw5DOqn_qT_rDB_GodQy1KH302mU0o9WDI10Zu3YTwTFqK7_LYtG6sz0GAWu9j-2U55D5fVCofnlH2HFA3HFEf4NO2jQzc_uDlsQf0n56WbEEtAr86aCL8U8EBpSQtUP1tRj38jRX6oIANAmsBGiMVsaC9SCxsUEiH9MIVylR-J-LgP1ZAbT2sKUcbTKNSlgZ_fI-mmYE08DQfgzj7g_IUJh3LCxmVMZ-s5x61n9z-BvVysvR7tqIanvHo6Do6qhQUbX7KNskF-kbFWLzhDzdkj4mD3C5U9RG1F7xP30c2Ds2fqBiKnhb1iVcu9A_4oHQf6_HsX5wzEwtB8eoPOsKlEj_1aAVnrHoCd4Hq-7tskq6x9QAEyMi3m-PClIhuOABUyFTksO8i0i6tk68BnL_8Gg5_FGnxRL4CAQOzFPKEOxvws9lTZa4xDKgLLoYlNOPh_QaRFDH8f41tNIovF-1J-VwF9s3_g8NeCzmSUqSx5xQ72_qR4RO7adHJm8atUhmG72LXFdC9omWCHEye099AQVzt_Jp_gjwabx8uXYREZoNk98sCoNPS1GZSvQlkLcr33_UdAm2tJ2BYRFhDhq71sslMoctlEwZPdtJ-Ga0?></g></svg>