<?plantuml 1.2026.2?><svg xmlns="http://www.w3.org/2000/svg" xmlns:xlink="http://www.w3.org/1999/xlink" contentStyleType="text/css" data-diagram-type="DESCRIPTION" height="435px" preserveAspectRatio="none" style="width:1087px;height:435px;background:#FEFEFE;" version="1.1" viewBox="0 0 1087 435" width="1087px" zoomAndPan="magnify"><defs/><g><rect fill="#FEFEFE" height="435" style="stroke:none;stroke-width:1;" width="1087" x="0" y="0"/><!--cluster ru.itmo.hhprocess--><g class="cluster" data-qualified-name="ru.itmo.hhprocess" data-source-line="5" id="ent0002"><rect fill="#FFFFFF" height="417.1" rx="2.5" ry="2.5" style="stroke:#000000;stroke-width:1;" width="940" x="12" y="12"/><text fill="#000000" font-family="Verdana" font-size="14" font-weight="bold" lengthAdjust="spacing" textLength="143.0898" x="410.4551" y="28.0752">ru.itmo.hhprocess</text></g><!--cluster msg--><g class="cluster" data-qualified-name="ru.itmo.hhprocess.msg" data-source-line="10" id="ent0007"><rect fill="#FFFFFF" height="109.03" rx="2.5" ry="2.5" style="stroke:#000000;stroke-width:1;" width="376" x="36" y="56"/><text fill="#000000" font-family="Verdana" font-size="14" font-weight="bold" lengthAdjust="spacing" textLength="84.4102" x="181.7949" y="72.0752">messaging</text></g><!--entity ctrl--><g class="entity" data-qualified-name="ru.itmo.hhprocess.ctrl" data-source-line="6" id="ent0003"><path d="M434.18,83.5 L473.5394,83.5 A3.75,3.75 0 0 1 476.0394,86 L483.0394,106.5146 L525.8167,106.5146 A2.5,2.5 0 0 1 528.3167,109.0146 L528.3167,155.0439 A2.5,2.5 0 0 1 525.8167,157.5439 L434.18,157.5439 A2.5,2.5 0 0 1 431.68,155.0439 L431.68,86 A2.5,2.5 0 0 1 434.18,83.5" fill="#FFFFFF" style="stroke:#000000;stroke-width:1;"/><line style="stroke:#000000;stroke-width:1;" x1="431.68" x2="483.0394" y1="106.5146" y2="106.5146"/><text fill="#000000" font-family="Verdana" font-size="14" font-weight="bold" lengthAdjust="spacing" textLength="26.3594" x="441.68" y="100.5752">ctrl</text><text fill="#000000" font-family="Verdana" font-size="14" font-style="italic" lengthAdjust="spacing" textLength="54.8311" x="447.5828" y="127.5898">&#171;REST&#187;</text><text fill="#000000" font-family="Verdana" font-size="14" lengthAdjust="spacing" textLength="66.6367" x="441.68" y="144.6045">controller</text></g><!--entity svc--><g class="entity" data-qualified-name="ru.itmo.hhprocess.svc" data-source-line="7" id="ent0004"><path d="M110.82,234.54 L149.4616,234.54 A3.75,3.75 0 0 1 151.9616,237.04 L158.9616,257.5546 L185.1891,257.5546 A2.5,2.5 0 0 1 187.6891,260.0546 L187.6891,289.0693 A2.5,2.5 0 0 1 185.1891,291.5693 L110.82,291.5693 A2.5,2.5 0 0 1 108.32,289.0693 L108.32,237.04 A2.5,2.5 0 0 1 110.82,234.54" fill="#FFFFFF" style="stroke:#000000;stroke-width:1;"/><line style="stroke:#000000;stroke-width:1;" x1="108.32" x2="158.9616" y1="257.5546" y2="257.5546"/><text fill="#000000" font-family="Verdana" font-size="14" font-weight="bold" lengthAdjust="spacing" textLength="25.6416" x="118.32" y="251.6152">svc</text><text fill="#000000" font-family="Verdana" font-size="14" lengthAdjust="spacing" textLength="49.3691" x="118.32" y="278.6298">service</text></g><!--entity repo--><g class="entity" data-qualified-name="ru.itmo.hhprocess.repo" data-source-line="8" id="ent0005"><path d="M566.03,92 L614.6863,92 A3.75,3.75 0 0 1 617.1863,94.5 L624.1863,115.0146 L661.9734,115.0146 A2.5,2.5 0 0 1 664.4734,117.5146 L664.4734,146.5293 A2.5,2.5 0 0 1 661.9734,149.0293 L566.03,149.0293 A2.5,2.5 0 0 1 563.53,146.5293 L563.53,94.5 A2.5,2.5 0 0 1 566.03,92" fill="#FFFFFF" style="stroke:#000000;stroke-width:1;"/><line style="stroke:#000000;stroke-width:1;" x1="563.53" x2="624.1863" y1="115.0146" y2="115.0146"/><text fill="#000000" font-family="Verdana" font-size="14" font-weight="bold" lengthAdjust="spacing" textLength="35.6563" x="573.53" y="109.0752">repo</text><text fill="#000000" font-family="Verdana" font-size="14" lengthAdjust="spacing" textLength="70.9434" x="573.53" y="136.0898">repository</text></g><!--entity ent--><g class="entity" data-qualified-name="ru.itmo.hhprocess.ent" data-source-line="9" id="ent0006"><path d="M702.32,92 L740.9684,92 A3.75,3.75 0 0 1 743.4684,94.5 L750.4684,115.0146 L767.6794,115.0146 A2.5,2.5 0 0 1 770.1794,117.5146 L770.1794,146.5293 A2.5,2.5 0 0 1 767.6794,149.0293 L702.32,149.0293 A2.5,2.5 0 0 1 699.82,146.5293 L699.82,94.5 A2.5,2.5 0 0 1 702.32,92" fill="#FFFFFF" style="stroke:#000000;stroke-width:1;"/><line style="stroke:#000000;stroke-width:1;" x1="699.82" x2="750.4684" y1="115.0146" y2="115.0146"/><text fill="#000000" font-family="Verdana" font-size="14" font-weight="bold" lengthAdjust="spacing" textLength="25.6484" x="709.82" y="109.0752">ent</text><text fill="#000000" font-family="Verdana" font-size="14" lengthAdjust="spacing" textLength="40.3594" x="709.82" y="136.0898">entity</text></g><!--entity inteis--><g class="entity" data-qualified-name="ru.itmo.hhprocess.inteis" data-source-line="15" id="ent0011"><path d="M808.03,92 L864.5544,92 A3.75,3.75 0 0 1 867.0544,94.5 L874.0544,115.0146 L933.9763,115.0146 A2.5,2.5 0 0 1 936.4763,117.5146 L936.4763,146.5293 A2.5,2.5 0 0 1 933.9763,149.0293 L808.03,149.0293 A2.5,2.5 0 0 1 805.53,146.5293 L805.53,94.5 A2.5,2.5 0 0 1 808.03,92" fill="#FFFFFF" style="stroke:#000000;stroke-width:1;"/><line style="stroke:#000000;stroke-width:1;" x1="805.53" x2="874.0544" y1="115.0146" y2="115.0146"/><text fill="#000000" font-family="Verdana" font-size="14" font-weight="bold" lengthAdjust="spacing" textLength="43.5244" x="815.53" y="109.0752">inteis</text><text fill="#000000" font-family="Verdana" font-size="14" lengthAdjust="spacing" textLength="100.9463" x="815.53" y="136.0898">integration.eis</text></g><!--entity jca--><g class="entity" data-qualified-name="ru.itmo.hhprocess.jca" data-source-line="16" id="ent0012"><path d="M782.22,234.54 L818.4485,234.54 A3.75,3.75 0 0 1 820.9485,237.04 L827.9485,257.5546 L933.7805,257.5546 A2.5,2.5 0 0 1 936.2805,260.0546 L936.2805,289.0693 A2.5,2.5 0 0 1 933.7805,291.5693 L782.22,291.5693 A2.5,2.5 0 0 1 779.72,289.0693 L779.72,237.04 A2.5,2.5 0 0 1 782.22,234.54" fill="#FFFFFF" style="stroke:#000000;stroke-width:1;"/><line style="stroke:#000000;stroke-width:1;" x1="779.72" x2="827.9485" y1="257.5546" y2="257.5546"/><text fill="#000000" font-family="Verdana" font-size="14" font-weight="bold" lengthAdjust="spacing" textLength="23.2285" x="789.72" y="251.6152">jca</text><text fill="#000000" font-family="Verdana" font-size="14" lengthAdjust="spacing" textLength="126.5605" x="789.72" y="278.6298">integration.eis.jca</text></g><!--entity sch--><g class="entity" data-qualified-name="ru.itmo.hhprocess.sch" data-source-line="17" id="ent0013"><path d="M399.74,234.54 L439.2566,234.54 A3.75,3.75 0 0 1 441.7566,237.04 L448.7566,257.5546 L492.2654,257.5546 A2.5,2.5 0 0 1 494.7654,260.0546 L494.7654,289.0693 A2.5,2.5 0 0 1 492.2654,291.5693 L399.74,291.5693 A2.5,2.5 0 0 1 397.24,289.0693 L397.24,237.04 A2.5,2.5 0 0 1 399.74,234.54" fill="#FFFFFF" style="stroke:#000000;stroke-width:1;"/><line style="stroke:#000000;stroke-width:1;" x1="397.24" x2="448.7566" y1="257.5546" y2="257.5546"/><text fill="#000000" font-family="Verdana" font-size="14" font-weight="bold" lengthAdjust="spacing" textLength="26.5166" x="407.24" y="251.6152">sch</text><text fill="#000000" font-family="Verdana" font-size="14" lengthAdjust="spacing" textLength="67.5254" x="407.24" y="278.6298">scheduler</text></g><!--entity schedmod--><g class="entity" data-qualified-name="ru.itmo.hhprocess.schedmod" data-source-line="18" id="ent0014"><path d="M532.59,234.54 L625.4064,234.54 A3.75,3.75 0 0 1 627.9064,237.04 L634.9064,257.5546 L649.4064,257.5546 A2.5,2.5 0 0 1 651.9064,260.0546 L651.9064,289.0693 A2.5,2.5 0 0 1 649.4064,291.5693 L532.59,291.5693 A2.5,2.5 0 0 1 530.09,289.0693 L530.09,237.04 A2.5,2.5 0 0 1 532.59,234.54" fill="#FFFFFF" style="stroke:#000000;stroke-width:1;"/><line style="stroke:#000000;stroke-width:1;" x1="530.09" x2="634.9064" y1="257.5546" y2="257.5546"/><text fill="#000000" font-family="Verdana" font-size="14" font-weight="bold" lengthAdjust="spacing" textLength="79.8164" x="540.09" y="251.6152">schedmod</text><text fill="#000000" font-family="Verdana" font-size="14" lengthAdjust="spacing" textLength="61.5508" x="540.09" y="278.6298">schedule</text></g><!--entity tx--><g class="entity" data-qualified-name="ru.itmo.hhprocess.tx" data-source-line="19" id="ent0015"><path d="M689.63,243.05 L718.3732,243.05 A3.75,3.75 0 0 1 720.8732,245.55 L727.8732,266.0646 L742.3732,266.0646 A2.5,2.5 0 0 1 744.8732,268.5646 L744.8732,280.5646 A2.5,2.5 0 0 1 742.3732,283.0646 L689.63,283.0646 A2.5,2.5 0 0 1 687.13,280.5646 L687.13,245.55 A2.5,2.5 0 0 1 689.63,243.05" fill="#FFFFFF" style="stroke:#000000;stroke-width:1;"/><line style="stroke:#000000;stroke-width:1;" x1="687.13" x2="727.8732" y1="266.0646" y2="266.0646"/><text fill="#000000" font-family="Verdana" font-size="14" font-weight="bold" lengthAdjust="spacing" textLength="15.7432" x="697.13" y="260.1252">tx</text></g><!--entity cfg--><g class="entity" data-qualified-name="ru.itmo.hhprocess.cfg" data-source-line="20" id="ent0016"><path d="M412.43,356.07 L449.3695,356.07 A3.75,3.75 0 0 1 451.8695,358.57 L458.8695,379.0846 L479.5667,379.0846 A2.5,2.5 0 0 1 482.0667,381.5846 L482.0667,410.5993 A2.5,2.5 0 0 1 479.5667,413.0993 L412.43,413.0993 A2.5,2.5 0 0 1 409.93,410.5993 L409.93,358.57 A2.5,2.5 0 0 1 412.43,356.07" fill="#FFFFFF" style="stroke:#000000;stroke-width:1;"/><line style="stroke:#000000;stroke-width:1;" x1="409.93" x2="458.8695" y1="379.0846" y2="379.0846"/><text fill="#000000" font-family="Verdana" font-size="14" font-weight="bold" lengthAdjust="spacing" textLength="23.9395" x="419.93" y="373.1452">cfg</text><text fill="#000000" font-family="Verdana" font-size="14" lengthAdjust="spacing" textLength="42.1367" x="419.93" y="400.1598">config</text></g><!--entity sec--><g class="entity" data-qualified-name="ru.itmo.hhprocess.sec" data-source-line="21" id="ent0017"><path d="M519.8,356.07 L558.6398,356.07 A3.75,3.75 0 0 1 561.1398,358.57 L568.1398,379.0846 L600.2053,379.0846 A2.5,2.5 0 0 1 602.7053,381.5846 L602.7053,410.5993 A2.5,2.5 0 0 1 600.2053,413.0993 L519.8,413.0993 A2.5,2.5 0 0 1 517.3,410.5993 L517.3,358.57 A2.5,2.5 0 0 1 519.8,356.07" fill="#FFFFFF" style="stroke:#000000;stroke-width:1;"/><line style="stroke:#000000;stroke-width:1;" x1="517.3" x2="568.1398" y1="379.0846" y2="379.0846"/><text fill="#000000" font-family="Verdana" font-size="14" font-weight="bold" lengthAdjust="spacing" textLength="25.8398" x="527.3" y="373.1452">sec</text><text fill="#000000" font-family="Verdana" font-size="14" lengthAdjust="spacing" textLength="55.4053" x="527.3" y="400.1598">security</text></g><!--entity mprod--><g class="entity" data-qualified-name="ru.itmo.hhprocess.msg.mprod" data-source-line="11" id="ent0008"><path d="M54.02,92 L117.9819,92 A3.75,3.75 0 0 1 120.4819,94.5 L127.4819,115.0146 L141.9819,115.0146 A2.5,2.5 0 0 1 144.4819,117.5146 L144.4819,146.5293 A2.5,2.5 0 0 1 141.9819,149.0293 L54.02,149.0293 A2.5,2.5 0 0 1 51.52,146.5293 L51.52,94.5 A2.5,2.5 0 0 1 54.02,92" fill="#FFFFFF" style="stroke:#000000;stroke-width:1;"/><line style="stroke:#000000;stroke-width:1;" x1="51.52" x2="127.4819" y1="115.0146" y2="115.0146"/><text fill="#000000" font-family="Verdana" font-size="14" font-weight="bold" lengthAdjust="spacing" textLength="50.9619" x="61.52" y="109.0752">mprod</text><text fill="#000000" font-family="Verdana" font-size="14" lengthAdjust="spacing" textLength="62.3848" x="61.52" y="136.0898">producer</text></g><!--entity mcons--><g class="entity" data-qualified-name="ru.itmo.hhprocess.msg.mcons" data-source-line="12" id="ent0009"><path d="M182.13,92 L246.0714,92 A3.75,3.75 0 0 1 248.5714,94.5 L255.5714,115.0146 L275.8654,115.0146 A2.5,2.5 0 0 1 278.3654,117.5146 L278.3654,146.5293 A2.5,2.5 0 0 1 275.8654,149.0293 L182.13,149.0293 A2.5,2.5 0 0 1 179.63,146.5293 L179.63,94.5 A2.5,2.5 0 0 1 182.13,92" fill="#FFFFFF" style="stroke:#000000;stroke-width:1;"/><line style="stroke:#000000;stroke-width:1;" x1="179.63" x2="255.5714" y1="115.0146" y2="115.0146"/><text fill="#000000" font-family="Verdana" font-size="14" font-weight="bold" lengthAdjust="spacing" textLength="50.9414" x="189.63" y="109.0752">mcons</text><text fill="#000000" font-family="Verdana" font-size="14" lengthAdjust="spacing" textLength="68.7354" x="189.63" y="136.0898">consumer</text></g><!--entity mdto--><g class="entity" data-qualified-name="ru.itmo.hhprocess.msg.mdto" data-source-line="13" id="ent0010"><path d="M316.2,92 L369.7918,92 A3.75,3.75 0 0 1 372.2918,94.5 L379.2918,115.0146 L393.7918,115.0146 A2.5,2.5 0 0 1 396.2918,117.5146 L396.2918,146.5293 A2.5,2.5 0 0 1 393.7918,149.0293 L316.2,149.0293 A2.5,2.5 0 0 1 313.7,146.5293 L313.7,94.5 A2.5,2.5 0 0 1 316.2,92" fill="#FFFFFF" style="stroke:#000000;stroke-width:1;"/><line style="stroke:#000000;stroke-width:1;" x1="313.7" x2="379.2918" y1="115.0146" y2="115.0146"/><text fill="#000000" font-family="Verdana" font-size="14" font-weight="bold" lengthAdjust="spacing" textLength="40.5918" x="323.7" y="109.0752">mdto</text><text fill="#000000" font-family="Verdana" font-size="14" lengthAdjust="spacing" textLength="22.7363" x="323.7" y="136.0898">dto</text></g><!--entity eiscloud--><g class="entity" data-qualified-name="eiscloud" data-source-line="28" id="ent0021"><path d="M976.8731,361.0142 C980.1871,354.6566 983.6371,354.3809 988.3034,359.6893 C990.8003,354.3652 996.85,353.5218 1000.564,358.1968 C1003.182,353.1693 1008.0225,352.6195 1011.5929,357.0909 C1014.3637,351.8269 1018.826,351.549 1022.7092,355.7898 C1026.5884,349.8643 1031.023,349.2596 1034.9766,355.716 C1039.2349,350.9689 1045.0565,352.5093 1046.7652,358.5119 C1051.3,354.1919 1055.6023,354.4544 1057.573,361.0506 C1061.5727,355.8706 1067.0033,357.1267 1069.6523,362.5844 C1076.3469,364.8801 1077.0385,368.8817 1072.1288,373.751 C1080.0621,376.3129 1080.2251,380.6485 1075.2351,386.3873 C1080.1728,391.7976 1077.618,395.3354 1072.0028,397.7416 C1075.6976,402.7904 1075.9176,408.1083 1068.291,409.6189 C1066.1819,414.9922 1060.7594,416.8683 1057.0675,411.2327 C1054.8174,417.1673 1050.1125,418.978 1045.6136,413.487 C1043.0289,419.0768 1038.643,419.649 1035.1647,414.344 C1032.3702,420.3875 1027.0359,421.4645 1022.3255,416.599 C1018.677,420.5879 1013.8449,419.2584 1012.0922,414.405 C1007.325,420.6128 1002.9274,420.06 999.2386,413.3335 C995.175,417.1681 990.3654,415.515 988.7144,410.4731 C984.2545,415.4846 980.3916,414.9952 976.6465,409.641 C971.4602,405.8743 970.2722,401.9569 976.1648,397.7418 C968.7964,395.2846 968.1079,391.0621 972.5169,385.1837 C967.9409,380.6068 969.5559,375.5577 975.442,373.6294 C970.1998,368.8007 969.652,364.429 976.8731,361.0142" fill="#FFFFFF" style="stroke:#000000;stroke-width:1;"/><text fill="#000000" font-family="Verdana" font-size="14" lengthAdjust="spacing" textLength="78.1689" x="982.92" y="381.6452">EIS (HTTP)</text><text fill="#000000" font-family="Verdana" font-size="14" lengthAdjust="spacing" textLength="64.6953" x="982.92" y="398.6598">&#1074;&#1085;&#1077;&#1096;&#1085;&#1080;&#1081;</text></g><!--link inteis to jca--><g class="link" data-entity-1="ent0011" data-entity-2="ent0012" data-link-type="dependency" data-source-line="24" id="lnk18"><path d="M868.43,149.28 C866.15,173.92 863.3933,226.7702 861.1133,251.3902" fill="none" id="inteis-to-jca" style="stroke:#000000;stroke-width:1;stroke-dasharray:7,7;"/><polygon fill="#000000" points="860.56,257.3646,865.3729,248.7718,861.0211,252.386,857.407,248.0341,860.56,257.3646" style="stroke:#000000;stroke-width:1;"/><text fill="#000000" font-family="Verdana" font-size="13" lengthAdjust="spacing" textLength="29.5166" x="865.89" y="201.6098">uses</text></g><!--link mcons to svc--><g class="link" data-entity-1="ent0009" data-entity-2="ent0004" data-link-type="dependency" data-source-line="25" id="lnk19"><path d="M213,149.28 C198.8,173.92 181.1561,227.5463 166.9661,252.1663" fill="none" id="mcons-to-svc" style="stroke:#000000;stroke-width:1;stroke-dasharray:7,7;"/><polygon fill="#000000" points="163.97,257.3646,171.9298,251.5645,166.4668,253.0327,164.9986,247.5697,163.97,257.3646" style="stroke:#000000;stroke-width:1;"/></g><!--link mprod to svc--><g class="link" data-entity-1="ent0008" data-entity-2="ent0004" data-link-type="dependency" data-source-line="26" id="lnk20"><path d="M107.88,149.28 C116.64,173.92 127.3687,204.0772 136.1287,228.6972" fill="none" id="mprod-to-svc" style="stroke:#000000;stroke-width:1;stroke-dasharray:7,7;"/><polygon fill="#000000" points="138.14,234.35,138.8916,224.5299,136.4639,229.6393,131.3545,227.2116,138.14,234.35" style="stroke:#000000;stroke-width:1;"/></g><!--link jca to eiscloud--><g class="link" data-entity-1="ent0012" data-entity-2="ent0021" data-link-type="dependency" data-source-line="29" id="lnk22"><path d="M896.04,291.78 C920.83,309.85 948.3818,329.9251 974.1118,348.6851" fill="none" id="jca-to-eiscloud" style="stroke:#000000;stroke-width:1;stroke-dasharray:7,7;"/><polygon fill="#000000" points="978.96,352.22,974.0443,343.6856,974.9199,349.2743,969.3312,350.1498,978.96,352.22" style="stroke:#000000;stroke-width:1;"/></g><?plantuml-src VP7DJeD058NtynHNtEY61p1DDwP6TqQwT3CEjyFO-I7pqxGntViy9YQwy1tmZPmP2W5Z30bmxdU0mxbdla65q4egD75ReLjggO8dohRScg3hQoEDXVERLJecZZOwACVA7oI2HUQfvX89ESsXiA4KNfcoQLfh63fNm0i163apsbiZ9Te2g0FchOJ5uc5LhPVBgS-XtGc6sUHsR8eijiO9R-mXqoId6BKNlaVnTafKZ4Evq3n3vNYEDZ74o7LWfsWggJcFuLrG0qzgpcjlUXHl8ZbEFowqHswf5qQNA5psfPbm_xZAPqQpCrvdxR06wp2K6DLVS61Og_mZey7lC_BxNulPYBuPjk7pLR1WXqgZ84T2-kHGbiiK3QuWE7GaLvA7QMMvm54H9aseeLZTLN1nkrxVNpxgxgtxwjw_N-Fve_liLoPSDfBqslJiEFW1?></g></svg>