<?plantuml 1.2026.2?><svg xmlns="http://www.w3.org/2000/svg" xmlns:xlink="http://www.w3.org/1999/xlink" contentStyleType="text/css" data-diagram-type="DESCRIPTION" height="519px" preserveAspectRatio="none" style="width:1172px;height:519px;background:#FEFEFE;" version="1.1" viewBox="0 0 1172 519" width="1172px" zoomAndPan="magnify"><defs/><g><rect fill="#FEFEFE" height="519" style="stroke:none;stroke-width:1;" width="1172" x="0" y="0"/><!--cluster ru.itmo.hhprocess--><g class="cluster" data-qualified-name="ru.itmo.hhprocess" data-source-line="5" id="ent0002"><rect fill="#FFFFFF" height="493.1" rx="2.5" ry="2.5" style="stroke:#000000;stroke-width:1;" width="940" x="12" y="12"/><text fill="#000000" font-family="Verdana" font-size="14" font-weight="bold" lengthAdjust="spacing" textLength="143.0898" x="410.4551" y="28.0752">ru.itmo.hhprocess</text></g><!--cluster msg--><g class="cluster" data-qualified-name="ru.itmo.hhprocess.msg" data-source-line="10" id="ent0007"><rect fill="#FFFFFF" height="109.03" rx="2.5" ry="2.5" style="stroke:#000000;stroke-width:1;" width="376" x="36" y="56"/><text fill="#000000" font-family="Verdana" font-size="14" font-weight="bold" lengthAdjust="spacing" textLength="84.4102" x="181.7949" y="72.0752">messaging</text></g><!--cluster extroot--><g class="cluster" data-qualified-name="extroot" data-source-line="28" id="ent0021"><rect fill="#FFFFFF" height="143.04" rx="2.5" ry="2.5" style="stroke:#000000;stroke-width:1;" width="190" x="976" y="370.57"/><text fill="#000000" font-family="Verdana" font-size="14" font-style="italic" lengthAdjust="spacing" textLength="153.0361" x="994.4819" y="386.6452">&#171;&#1086;&#1090;&#1076;&#1077;&#1083;&#1100;&#1085;&#1099;&#1081; &#1084;&#1086;&#1076;&#1091;&#1083;&#1100;&#187;</text><text fill="#000000" font-family="Verdana" font-size="14" font-weight="bold" lengthAdjust="spacing" textLength="150.4316" x="995.7842" y="403.6598">ru.itmo.externaleis</text></g><!--entity ctrl--><g class="entity" data-qualified-name="ru.itmo.hhprocess.ctrl" data-source-line="6" id="ent0003"><path d="M434.18,83.49 L473.5394,83.49 A3.75,3.75 0 0 1 476.0394,85.99 L483.0394,106.5046 L525.8167,106.5046 A2.5,2.5 0 0 1 528.3167,109.0046 L528.3167,155.0339 A2.5,2.5 0 0 1 525.8167,157.5339 L434.18,157.5339 A2.5,2.5 0 0 1 431.68,155.0339 L431.68,85.99 A2.5,2.5 0 0 1 434.18,83.49" fill="#FFFFFF" style="stroke:#000000;stroke-width:1;"/><line style="stroke:#000000;stroke-width:1;" x1="431.68" x2="483.0394" y1="106.5046" y2="106.5046"/><text fill="#000000" font-family="Verdana" font-size="14" font-weight="bold" lengthAdjust="spacing" textLength="26.3594" x="441.68" y="100.5652">ctrl</text><text fill="#000000" font-family="Verdana" font-size="14" font-style="italic" lengthAdjust="spacing" textLength="54.8311" x="447.5828" y="127.5798">&#171;REST&#187;</text><text fill="#000000" font-family="Verdana" font-size="14" lengthAdjust="spacing" textLength="66.6367" x="441.68" y="144.5945">controller</text></g><!--entity svc--><g class="entity" data-qualified-name="ru.itmo.hhprocess.svc" data-source-line="7" id="ent0004"><path d="M110.82,234.54 L149.4616,234.54 A3.75,3.75 0 0 1 151.9616,237.04 L158.9616,257.5546 L185.1891,257.5546 A2.5,2.5 0 0 1 187.6891,260.0546 L187.6891,289.0693 A2.5,2.5 0 0 1 185.1891,291.5693 L110.82,291.5693 A2.5,2.5 0 0 1 108.32,289.0693 L108.32,237.04 A2.5,2.5 0 0 1 110.82,234.54" fill="#FFFFFF" style="stroke:#000000;stroke-width:1;"/><line style="stroke:#000000;stroke-width:1;" x1="108.32" x2="158.9616" y1="257.5546" y2="257.5546"/><text fill="#000000" font-family="Verdana" font-size="14" font-weight="bold" lengthAdjust="spacing" textLength="25.6416" x="118.32" y="251.6152">svc</text><text fill="#000000" font-family="Verdana" font-size="14" lengthAdjust="spacing" textLength="49.3691" x="118.32" y="278.6298">service</text></g><!--entity repo--><g class="entity" data-qualified-name="ru.itmo.hhprocess.repo" data-source-line="8" id="ent0005"><path d="M566.03,92 L614.6863,92 A3.75,3.75 0 0 1 617.1863,94.5 L624.1863,115.0146 L661.9734,115.0146 A2.5,2.5 0 0 1 664.4734,117.5146 L664.4734,146.5293 A2.5,2.5 0 0 1 661.9734,149.0293 L566.03,149.0293 A2.5,2.5 0 0 1 563.53,146.5293 L563.53,94.5 A2.5,2.5 0 0 1 566.03,92" fill="#FFFFFF" style="stroke:#000000;stroke-width:1;"/><line style="stroke:#000000;stroke-width:1;" x1="563.53" x2="624.1863" y1="115.0146" y2="115.0146"/><text fill="#000000" font-family="Verdana" font-size="14" font-weight="bold" lengthAdjust="spacing" textLength="35.6563" x="573.53" y="109.0752">repo</text><text fill="#000000" font-family="Verdana" font-size="14" lengthAdjust="spacing" textLength="70.9434" x="573.53" y="136.0898">repository</text></g><!--entity ent--><g class="entity" data-qualified-name="ru.itmo.hhprocess.ent" data-source-line="9" id="ent0006"><path d="M702.32,92 L740.9684,92 A3.75,3.75 0 0 1 743.4684,94.5 L750.4684,115.0146 L767.6794,115.0146 A2.5,2.5 0 0 1 770.1794,117.5146 L770.1794,146.5293 A2.5,2.5 0 0 1 767.6794,149.0293 L702.32,149.0293 A2.5,2.5 0 0 1 699.82,146.5293 L699.82,94.5 A2.5,2.5 0 0 1 702.32,92" fill="#FFFFFF" style="stroke:#000000;stroke-width:1;"/><line style="stroke:#000000;stroke-width:1;" x1="699.82" x2="750.4684" y1="115.0146" y2="115.0146"/><text fill="#000000" font-family="Verdana" font-size="14" font-weight="bold" lengthAdjust="spacing" textLength="25.6484" x="709.82" y="109.0752">ent</text><text fill="#000000" font-family="Verdana" font-size="14" lengthAdjust="spacing" textLength="40.3594" x="709.82" y="136.0898">entity</text></g><!--entity inteis--><g class="entity" data-qualified-name="ru.itmo.hhprocess.inteis" data-source-line="15" id="ent0011"><path d="M808.03,92 L864.5544,92 A3.75,3.75 0 0 1 867.0544,94.5 L874.0544,115.0146 L933.9763,115.0146 A2.5,2.5 0 0 1 936.4763,117.5146 L936.4763,146.5293 A2.5,2.5 0 0 1 933.9763,149.0293 L808.03,149.0293 A2.5,2.5 0 0 1 805.53,146.5293 L805.53,94.5 A2.5,2.5 0 0 1 808.03,92" fill="#FFFFFF" style="stroke:#000000;stroke-width:1;"/><line style="stroke:#000000;stroke-width:1;" x1="805.53" x2="874.0544" y1="115.0146" y2="115.0146"/><text fill="#000000" font-family="Verdana" font-size="14" font-weight="bold" lengthAdjust="spacing" textLength="43.5244" x="815.53" y="109.0752">inteis</text><text fill="#000000" font-family="Verdana" font-size="14" lengthAdjust="spacing" textLength="100.9463" x="815.53" y="136.0898">integration.eis</text></g><!--entity jca--><g class="entity" data-qualified-name="ru.itmo.hhprocess.jca" data-source-line="16" id="ent0012"><path d="M782.22,234.54 L818.4485,234.54 A3.75,3.75 0 0 1 820.9485,237.04 L827.9485,257.5546 L933.7805,257.5546 A2.5,2.5 0 0 1 936.2805,260.0546 L936.2805,289.0693 A2.5,2.5 0 0 1 933.7805,291.5693 L782.22,291.5693 A2.5,2.5 0 0 1 779.72,289.0693 L779.72,237.04 A2.5,2.5 0 0 1 782.22,234.54" fill="#FFFFFF" style="stroke:#000000;stroke-width:1;"/><line style="stroke:#000000;stroke-width:1;" x1="779.72" x2="827.9485" y1="257.5546" y2="257.5546"/><text fill="#000000" font-family="Verdana" font-size="14" font-weight="bold" lengthAdjust="spacing" textLength="23.2285" x="789.72" y="251.6152">jca</text><text fill="#000000" font-family="Verdana" font-size="14" lengthAdjust="spacing" textLength="126.5605" x="789.72" y="278.6298">integration.eis.jca</text></g><!--entity sch--><g class="entity" data-qualified-name="ru.itmo.hhprocess.sch" data-source-line="17" id="ent0013"><path d="M399.74,234.54 L439.2566,234.54 A3.75,3.75 0 0 1 441.7566,237.04 L448.7566,257.5546 L492.2654,257.5546 A2.5,2.5 0 0 1 494.7654,260.0546 L494.7654,289.0693 A2.5,2.5 0 0 1 492.2654,291.5693 L399.74,291.5693 A2.5,2.5 0 0 1 397.24,289.0693 L397.24,237.04 A2.5,2.5 0 0 1 399.74,234.54" fill="#FFFFFF" style="stroke:#000000;stroke-width:1;"/><line style="stroke:#000000;stroke-width:1;" x1="397.24" x2="448.7566" y1="257.5546" y2="257.5546"/><text fill="#000000" font-family="Verdana" font-size="14" font-weight="bold" lengthAdjust="spacing" textLength="26.5166" x="407.24" y="251.6152">sch</text><text fill="#000000" font-family="Verdana" font-size="14" lengthAdjust="spacing" textLength="67.5254" x="407.24" y="278.6298">scheduler</text></g><!--entity schedmod--><g class="entity" data-qualified-name="ru.itmo.hhprocess.schedmod" data-source-line="18" id="ent0014"><path d="M532.59,234.54 L625.4064,234.54 A3.75,3.75 0 0 1 627.9064,237.04 L634.9064,257.5546 L649.4064,257.5546 A2.5,2.5 0 0 1 651.9064,260.0546 L651.9064,289.0693 A2.5,2.5 0 0 1 649.4064,291.5693 L532.59,291.5693 A2.5,2.5 0 0 1 530.09,289.0693 L530.09,237.04 A2.5,2.5 0 0 1 532.59,234.54" fill="#FFFFFF" style="stroke:#000000;stroke-width:1;"/><line style="stroke:#000000;stroke-width:1;" x1="530.09" x2="634.9064" y1="257.5546" y2="257.5546"/><text fill="#000000" font-family="Verdana" font-size="14" font-weight="bold" lengthAdjust="spacing" textLength="79.8164" x="540.09" y="251.6152">schedmod</text><text fill="#000000" font-family="Verdana" font-size="14" lengthAdjust="spacing" textLength="61.5508" x="540.09" y="278.6298">schedule</text></g><!--entity tx--><g class="entity" data-qualified-name="ru.itmo.hhprocess.tx" data-source-line="19" id="ent0015"><path d="M689.63,243.04 L718.3732,243.04 A3.75,3.75 0 0 1 720.8732,245.54 L727.8732,266.0546 L742.3732,266.0546 A2.5,2.5 0 0 1 744.8732,268.5546 L744.8732,280.5546 A2.5,2.5 0 0 1 742.3732,283.0546 L689.63,283.0546 A2.5,2.5 0 0 1 687.13,280.5546 L687.13,245.54 A2.5,2.5 0 0 1 689.63,243.04" fill="#FFFFFF" style="stroke:#000000;stroke-width:1;"/><line style="stroke:#000000;stroke-width:1;" x1="687.13" x2="727.8732" y1="266.0546" y2="266.0546"/><text fill="#000000" font-family="Verdana" font-size="14" font-weight="bold" lengthAdjust="spacing" textLength="15.7432" x="697.13" y="260.1152">tx</text></g><!--entity cfg--><g class="entity" data-qualified-name="ru.itmo.hhprocess.cfg" data-source-line="20" id="ent0016"><path d="M412.43,432.07 L449.3695,432.07 A3.75,3.75 0 0 1 451.8695,434.57 L458.8695,455.0846 L479.5667,455.0846 A2.5,2.5 0 0 1 482.0667,457.5846 L482.0667,486.5993 A2.5,2.5 0 0 1 479.5667,489.0993 L412.43,489.0993 A2.5,2.5 0 0 1 409.93,486.5993 L409.93,434.57 A2.5,2.5 0 0 1 412.43,432.07" fill="#FFFFFF" style="stroke:#000000;stroke-width:1;"/><line style="stroke:#000000;stroke-width:1;" x1="409.93" x2="458.8695" y1="455.0846" y2="455.0846"/><text fill="#000000" font-family="Verdana" font-size="14" font-weight="bold" lengthAdjust="spacing" textLength="23.9395" x="419.93" y="449.1452">cfg</text><text fill="#000000" font-family="Verdana" font-size="14" lengthAdjust="spacing" textLength="42.1367" x="419.93" y="476.1598">config</text></g><!--entity sec--><g class="entity" data-qualified-name="ru.itmo.hhprocess.sec" data-source-line="21" id="ent0017"><path d="M519.8,432.07 L558.6398,432.07 A3.75,3.75 0 0 1 561.1398,434.57 L568.1398,455.0846 L600.2053,455.0846 A2.5,2.5 0 0 1 602.7053,457.5846 L602.7053,486.5993 A2.5,2.5 0 0 1 600.2053,489.0993 L519.8,489.0993 A2.5,2.5 0 0 1 517.3,486.5993 L517.3,434.57 A2.5,2.5 0 0 1 519.8,432.07" fill="#FFFFFF" style="stroke:#000000;stroke-width:1;"/><line style="stroke:#000000;stroke-width:1;" x1="517.3" x2="568.1398" y1="455.0846" y2="455.0846"/><text fill="#000000" font-family="Verdana" font-size="14" font-weight="bold" lengthAdjust="spacing" textLength="25.8398" x="527.3" y="449.1452">sec</text><text fill="#000000" font-family="Verdana" font-size="14" lengthAdjust="spacing" textLength="55.4053" x="527.3" y="476.1598">security</text></g><!--entity mprod--><g class="entity" data-qualified-name="ru.itmo.hhprocess.msg.mprod" data-source-line="11" id="ent0008"><path d="M54.02,92 L117.9819,92 A3.75,3.75 0 0 1 120.4819,94.5 L127.4819,115.0146 L141.9819,115.0146 A2.5,2.5 0 0 1 144.4819,117.5146 L144.4819,146.5293 A2.5,2.5 0 0 1 141.9819,149.0293 L54.02,149.0293 A2.5,2.5 0 0 1 51.52,146.5293 L51.52,94.5 A2.5,2.5 0 0 1 54.02,92" fill="#FFFFFF" style="stroke:#000000;stroke-width:1;"/><line style="stroke:#000000;stroke-width:1;" x1="51.52" x2="127.4819" y1="115.0146" y2="115.0146"/><text fill="#000000" font-family="Verdana" font-size="14" font-weight="bold" lengthAdjust="spacing" textLength="50.9619" x="61.52" y="109.0752">mprod</text><text fill="#000000" font-family="Verdana" font-size="14" lengthAdjust="spacing" textLength="62.3848" x="61.52" y="136.0898">producer</text></g><!--entity mcons--><g class="entity" data-qualified-name="ru.itmo.hhprocess.msg.mcons" data-source-line="12" id="ent0009"><path d="M182.13,92 L246.0714,92 A3.75,3.75 0 0 1 248.5714,94.5 L255.5714,115.0146 L275.8654,115.0146 A2.5,2.5 0 0 1 278.3654,117.5146 L278.3654,146.5293 A2.5,2.5 0 0 1 275.8654,149.0293 L182.13,149.0293 A2.5,2.5 0 0 1 179.63,146.5293 L179.63,94.5 A2.5,2.5 0 0 1 182.13,92" fill="#FFFFFF" style="stroke:#000000;stroke-width:1;"/><line style="stroke:#000000;stroke-width:1;" x1="179.63" x2="255.5714" y1="115.0146" y2="115.0146"/><text fill="#000000" font-family="Verdana" font-size="14" font-weight="bold" lengthAdjust="spacing" textLength="50.9414" x="189.63" y="109.0752">mcons</text><text fill="#000000" font-family="Verdana" font-size="14" lengthAdjust="spacing" textLength="68.7354" x="189.63" y="136.0898">consumer</text></g><!--entity mdto--><g class="entity" data-qualified-name="ru.itmo.hhprocess.msg.mdto" data-source-line="13" id="ent0010"><path d="M316.2,92 L369.7918,92 A3.75,3.75 0 0 1 372.2918,94.5 L379.2918,115.0146 L393.7918,115.0146 A2.5,2.5 0 0 1 396.2918,117.5146 L396.2918,146.5293 A2.5,2.5 0 0 1 393.7918,149.0293 L316.2,149.0293 A2.5,2.5 0 0 1 313.7,146.5293 L313.7,94.5 A2.5,2.5 0 0 1 316.2,92" fill="#FFFFFF" style="stroke:#000000;stroke-width:1;"/><line style="stroke:#000000;stroke-width:1;" x1="313.7" x2="379.2918" y1="115.0146" y2="115.0146"/><text fill="#000000" font-family="Verdana" font-size="14" font-weight="bold" lengthAdjust="spacing" textLength="40.5918" x="323.7" y="109.0752">mdto</text><text fill="#000000" font-family="Verdana" font-size="14" lengthAdjust="spacing" textLength="22.7363" x="323.7" y="136.0898">dto</text></g><!--entity extweb--><g class="entity" data-qualified-name="extroot.extweb" data-source-line="29" id="ent0022"><path d="M994.19,423.57 L1065.0289,423.57 A3.75,3.75 0 0 1 1067.5289,426.07 L1074.5289,446.5846 L1147.8121,446.5846 A2.5,2.5 0 0 1 1150.3121,449.0846 L1150.3121,495.1139 A2.5,2.5 0 0 1 1147.8121,497.6139 L994.19,497.6139 A2.5,2.5 0 0 1 991.69,495.1139 L991.69,426.07 A2.5,2.5 0 0 1 994.19,423.57" fill="#FFFFFF" style="stroke:#000000;stroke-width:1;"/><line style="stroke:#000000;stroke-width:1;" x1="991.69" x2="1074.5289" y1="446.5846" y2="446.5846"/><text fill="#000000" font-family="Verdana" font-size="14" font-weight="bold" lengthAdjust="spacing" textLength="57.8389" x="1001.69" y="440.6452">extweb</text><text fill="#000000" font-family="Verdana" font-size="14" font-style="italic" lengthAdjust="spacing" textLength="126.6221" x="1002.69" y="467.6598">&#171;REST mock EIS&#187;</text><text fill="#000000" font-family="Verdana" font-size="14" lengthAdjust="spacing" textLength="28.5195" x="1051.7413" y="484.6745">web</text></g><!--link inteis to jca--><g class="link" data-entity-1="ent0011" data-entity-2="ent0012" data-link-type="dependency" data-source-line="24" id="lnk18"><path d="M868.43,149.28 C866.15,173.92 863.3933,226.7602 861.1133,251.3802" fill="none" id="inteis-to-jca" style="stroke:#000000;stroke-width:1;stroke-dasharray:7,7;"/><polygon fill="#000000" points="860.56,257.3546,865.3729,248.7618,861.0211,252.376,857.407,248.0241,860.56,257.3546" style="stroke:#000000;stroke-width:1;"/><text fill="#000000" font-family="Verdana" font-size="13" lengthAdjust="spacing" textLength="29.5166" x="865.89" y="201.6098">uses</text></g><!--link mcons to svc--><g class="link" data-entity-1="ent0009" data-entity-2="ent0004" data-link-type="dependency" data-source-line="25" id="lnk19"><path d="M213,149.28 C198.8,173.92 181.1561,227.5363 166.9661,252.1563" fill="none" id="mcons-to-svc" style="stroke:#000000;stroke-width:1;stroke-dasharray:7,7;"/><polygon fill="#000000" points="163.97,257.3546,171.9298,251.5545,166.4668,253.0227,164.9986,247.5597,163.97,257.3546" style="stroke:#000000;stroke-width:1;"/></g><!--link mprod to svc--><g class="link" data-entity-1="ent0008" data-entity-2="ent0004" data-link-type="dependency" data-source-line="26" id="lnk20"><path d="M107.88,149.28 C116.64,173.92 127.3687,204.0672 136.1287,228.6872" fill="none" id="mprod-to-svc" style="stroke:#000000;stroke-width:1;stroke-dasharray:7,7;"/><polygon fill="#000000" points="138.14,234.34,138.8916,224.5199,136.4639,229.6293,131.3545,227.2016,138.14,234.34" style="stroke:#000000;stroke-width:1;"/></g><!--link jca to extweb--><g class="link" data-entity-1="ent0012" data-entity-2="ent0022" data-link-type="dependency" data-source-line="32" id="lnk23"><path d="M888.07,291.65 C925.56,326.08 985.3597,380.9728 1026.8797,419.0828" fill="none" id="jca-to-extweb" style="stroke:#000000;stroke-width:1;stroke-dasharray:7,7;"/><polygon fill="#000000" points="1031.3,423.14,1027.3744,414.1073,1027.6164,419.759,1021.9648,420.001,1031.3,423.14" style="stroke:#000000;stroke-width:1;"/><text fill="#000000" font-family="Verdana" font-size="13" lengthAdjust="spacing" textLength="62.9053" x="1019.0862" y="335.6398">HTTP &#1087;&#1088;&#1080;</text><text fill="#000000" font-family="Verdana" font-size="13" lengthAdjust="spacing" textLength="195.5776" x="952.75" y="351.4391">APP_EIS_REMOTE_BASE_URL</text></g><?plantuml-src VPBHQjim58RlzHHdwRqVe0H3MZnMM6b8qhj1KEHJHuib6KbE4qQWj9VRutImiQrx1VcDAYbniDjIV67zv_jn_lmw7-mI1K9LKYw9MN5PKKq5B2XR5LhLCZzNfT9myZ4BJyTHUGSjS6gt9O96PgaiIYJaC8U1hXDkXKgMoqehXiOCu1i1E7AcfDMgB54FW1fWLfSm74wowInDkpw3UiqPHfDPioxIM2d3hTBRI8FiOfIMsptonouHFWujk2mY5AQ8qJe67pclsI6Q2AhFVNXJYvO7rUUvLNla3vxikZ_EfSL2KykLJ92Rw0ipRjvn9LyPZKx_xhN3bfZNRObUlGLRXhc8V-Hei9k8xER5nTpmVJFifkXV1QjrMwaNP4V8FZaaIHgYmIdK1Ws9bSHXkB9Ou56zNX7SMDIIbcqRNckbh5y7zzJSkqVtq_rfVhX_pNVt6znVz-GUcuSmIjF-JjtYels0FnxM2OHYAyWkfdwlVE2GCaGvU4xXqsms1lU_kNE_liZHU3ptrlaakxoQPVEpqJIRNqy-asS0?></g></svg>